M48
; DRILL file {KiCad 9.0.6} date 2025-12-25T21:02:08-0800
; FORMAT={-:-/ absolute / metric / decimal}
; #@! TF.CreationDate,2025-12-25T21:02:08-08:00
; #@! TF.GenerationSoftware,Kicad,Pcbnew,9.0.6
; #@! TF.FileFunction,Plated,1,2,PTH
FMAT,2
METRIC
; #@! TA.AperFunction,Plated,PTH,ViaDrill
T1C0.300
; #@! TA.AperFunction,Plated,PTH,ComponentDrill
T2C0.787
; #@! TA.AperFunction,Plated,PTH,ComponentDrill
T3C0.800
; #@! TA.AperFunction,Plated,PTH,ComponentDrill
T4C0.900
; #@! TA.AperFunction,Plated,PTH,ComponentDrill
T5C1.000
%
G90
G05
T1
X141.75Y-71.25
X143.75Y-76.25
X145.52Y-71.25
X152.0Y-77.356
X153.9Y-77.3
T2
X156.19Y-51.11
X156.19Y-53.65
X156.19Y-56.19
X156.19Y-58.73
X156.19Y-61.27
X156.19Y-63.81
X156.19Y-66.35
X156.19Y-68.89
X163.81Y-51.11
X163.81Y-53.65
X163.81Y-56.19
X163.81Y-58.73
X163.81Y-61.27
X163.81Y-63.81
X163.81Y-66.35
X163.81Y-68.89
T3
X129.195Y-52.19
X129.195Y-54.73
X129.195Y-57.27
X129.195Y-59.81
X136.815Y-52.19
X136.815Y-54.73
X136.815Y-57.27
X136.815Y-59.81
X141.75Y-57.25
X141.75Y-66.0
X143.75Y-57.25
X143.75Y-66.0
X144.92Y-73.08
X150.0Y-59.71
X150.0Y-62.25
X150.0Y-64.79
X155.08Y-73.08
X169.5Y-50.92
X169.5Y-61.08
T4
X121.73Y-55.5
X124.27Y-55.5
X129.23Y-68.0
X131.77Y-68.0
X133.73Y-43.5
X136.27Y-43.5
X139.23Y-78.0
X141.77Y-78.0
X148.73Y-52.0
X148.73Y-87.75
X151.27Y-52.0
X151.27Y-87.75
X158.23Y-78.0
X160.77Y-78.0
X163.73Y-43.5
X166.27Y-43.5
X168.23Y-68.0
X170.77Y-68.0
X175.73Y-56.0
X178.27Y-56.0
T5
X147.475Y-80.225
X150.015Y-80.225
X152.555Y-80.225
M30
