%TF.GenerationSoftware,KiCad,Pcbnew,9.0.6*%
%TF.CreationDate,2025-12-25T21:01:25-08:00*%
%TF.ProjectId,LED Chaser,4c454420-4368-4617-9365-722e6b696361,rev?*%
%TF.SameCoordinates,Original*%
%TF.FileFunction,Copper,L2,Bot*%
%TF.FilePolarity,Positive*%
%FSLAX46Y46*%
G04 Gerber Fmt 4.6, Leading zero omitted, Abs format (unit mm)*
G04 Created by KiCad (PCBNEW 9.0.6) date 2025-12-25 21:01:25*
%MOMM*%
%LPD*%
G01*
G04 APERTURE LIST*
G04 Aperture macros list*
%AMRoundRect*
0 Rectangle with rounded corners*
0 $1 Rounding radius*
0 $2 $3 $4 $5 $6 $7 $8 $9 X,Y pos of 4 corners*
0 Add a 4 corners polygon primitive as box body*
4,1,4,$2,$3,$4,$5,$6,$7,$8,$9,$2,$3,0*
0 Add four circle primitives for the rounded corners*
1,1,$1+$1,$2,$3*
1,1,$1+$1,$4,$5*
1,1,$1+$1,$6,$7*
1,1,$1+$1,$8,$9*
0 Add four rect primitives between the rounded corners*
20,1,$1+$1,$2,$3,$4,$5,0*
20,1,$1+$1,$4,$5,$6,$7,0*
20,1,$1+$1,$6,$7,$8,$9,0*
20,1,$1+$1,$8,$9,$2,$3,0*%
G04 Aperture macros list end*
%TA.AperFunction,ComponentPad*%
%ADD10R,1.800000X1.800000*%
%TD*%
%TA.AperFunction,ComponentPad*%
%ADD11C,1.800000*%
%TD*%
%TA.AperFunction,ComponentPad*%
%ADD12RoundRect,0.250000X0.550000X0.550000X-0.550000X0.550000X-0.550000X-0.550000X0.550000X-0.550000X0*%
%TD*%
%TA.AperFunction,ComponentPad*%
%ADD13C,1.600000*%
%TD*%
%TA.AperFunction,ComponentPad*%
%ADD14RoundRect,0.250000X-0.550000X-0.550000X0.550000X-0.550000X0.550000X0.550000X-0.550000X0.550000X0*%
%TD*%
%TA.AperFunction,ComponentPad*%
%ADD15R,1.295400X1.295400*%
%TD*%
%TA.AperFunction,ComponentPad*%
%ADD16C,1.295400*%
%TD*%
%TA.AperFunction,ComponentPad*%
%ADD17C,1.440000*%
%TD*%
%TA.AperFunction,ComponentPad*%
%ADD18R,1.700000X1.700000*%
%TD*%
%TA.AperFunction,ComponentPad*%
%ADD19C,1.700000*%
%TD*%
%TA.AperFunction,ViaPad*%
%ADD20C,0.600000*%
%TD*%
%TA.AperFunction,Conductor*%
%ADD21C,0.200000*%
%TD*%
G04 APERTURE END LIST*
D10*
%TO.P,D10,1,K*%
%TO.N,Net-(D1-K)*%
X175730000Y-56000000D03*
D11*
%TO.P,D10,2,A*%
%TO.N,Net-(D10-A)*%
X178270000Y-56000000D03*
%TD*%
D10*
%TO.P,D3,1,K*%
%TO.N,Net-(D1-K)*%
X121730000Y-55500000D03*
D11*
%TO.P,D3,2,A*%
%TO.N,Net-(D3-A)*%
X124270000Y-55500000D03*
%TD*%
D10*
%TO.P,D4,1,K*%
%TO.N,Net-(D1-K)*%
X148730000Y-87750000D03*
D11*
%TO.P,D4,2,A*%
%TO.N,Net-(D4-A)*%
X151270000Y-87750000D03*
%TD*%
D12*
%TO.P,C2,1*%
%TO.N,GND*%
X143750000Y-57250000D03*
D13*
%TO.P,C2,2*%
%TO.N,TR*%
X141750000Y-57250000D03*
%TD*%
%TO.P,R2,1*%
%TO.N,Net-(D1-K)*%
X169500000Y-50920000D03*
%TO.P,R2,2*%
%TO.N,GND*%
X169500000Y-61080000D03*
%TD*%
%TO.P,R1,1*%
%TO.N,+5V*%
X155080000Y-73080000D03*
%TO.P,R1,2*%
%TO.N,Net-(U1-DIS)*%
X144920000Y-73080000D03*
%TD*%
D10*
%TO.P,D9,1,K*%
%TO.N,Net-(D1-K)*%
X158230000Y-78000000D03*
D11*
%TO.P,D9,2,A*%
%TO.N,Net-(D9-A)*%
X160770000Y-78000000D03*
%TD*%
D10*
%TO.P,D8,1,K*%
%TO.N,Net-(D1-K)*%
X139230000Y-78000000D03*
D11*
%TO.P,D8,2,A*%
%TO.N,Net-(D8-A)*%
X141770000Y-78000000D03*
%TD*%
D10*
%TO.P,D7,1,K*%
%TO.N,Net-(D1-K)*%
X129230000Y-68000000D03*
D11*
%TO.P,D7,2,A*%
%TO.N,Net-(D7-A)*%
X131770000Y-68000000D03*
%TD*%
D10*
%TO.P,D2,1,K*%
%TO.N,Net-(D1-K)*%
X148730000Y-52000000D03*
D11*
%TO.P,D2,2,A*%
%TO.N,Net-(D2-A)*%
X151270000Y-52000000D03*
%TD*%
D14*
%TO.P,U1,1,GND*%
%TO.N,GND*%
X129195000Y-52190000D03*
D13*
%TO.P,U1,2,TR*%
%TO.N,TR*%
X129195000Y-54730000D03*
%TO.P,U1,3,Q*%
%TO.N,OUT*%
X129195000Y-57270000D03*
%TO.P,U1,4,R*%
%TO.N,+5V*%
X129195000Y-59810000D03*
%TO.P,U1,5,CV*%
%TO.N,Net-(U1-CV)*%
X136815000Y-59810000D03*
%TO.P,U1,6,THR*%
%TO.N,TR*%
X136815000Y-57270000D03*
%TO.P,U1,7,DIS*%
%TO.N,Net-(U1-DIS)*%
X136815000Y-54730000D03*
%TO.P,U1,8,VCC*%
%TO.N,+5V*%
X136815000Y-52190000D03*
%TD*%
D15*
%TO.P,U2,1,Q5*%
%TO.N,Net-(D6-A)*%
X156190000Y-51110000D03*
D16*
%TO.P,U2,2,Q1*%
%TO.N,Net-(D2-A)*%
X156190000Y-53650000D03*
%TO.P,U2,3,Q0*%
%TO.N,Net-(D1-A)*%
X156190000Y-56190000D03*
%TO.P,U2,4,Q2*%
%TO.N,Net-(D3-A)*%
X156190000Y-58730000D03*
%TO.P,U2,5,Q6*%
%TO.N,Net-(D7-A)*%
X156190000Y-61270000D03*
%TO.P,U2,6,Q7*%
%TO.N,Net-(D8-A)*%
X156190000Y-63810000D03*
%TO.P,U2,7,Q3*%
%TO.N,Net-(D4-A)*%
X156190000Y-66350000D03*
%TO.P,U2,8,VSS*%
%TO.N,GND*%
X156190000Y-68890000D03*
%TO.P,U2,9,Q8*%
%TO.N,Net-(D9-A)*%
X163810000Y-68890000D03*
%TO.P,U2,10,Q4*%
%TO.N,Net-(D5-A)*%
X163810000Y-66350000D03*
%TO.P,U2,11,Q9*%
%TO.N,Net-(D10-A)*%
X163810000Y-63810000D03*
%TO.P,U2,12,Cout*%
%TO.N,unconnected-(U2-Cout-Pad12)*%
X163810000Y-61270000D03*
%TO.P,U2,13,CKEN*%
%TO.N,GND*%
X163810000Y-58730000D03*
%TO.P,U2,14,CLK*%
%TO.N,OUT*%
X163810000Y-56190000D03*
%TO.P,U2,15,Reset*%
%TO.N,GND*%
X163810000Y-53650000D03*
%TO.P,U2,16,VDD*%
%TO.N,+5V*%
X163810000Y-51110000D03*
%TD*%
D17*
%TO.P,RV1,1,1*%
%TO.N,Net-(U1-DIS)*%
X150000000Y-59710000D03*
%TO.P,RV1,2,2*%
X150000000Y-62250000D03*
%TO.P,RV1,3,3*%
%TO.N,TR*%
X150000000Y-64790000D03*
%TD*%
D10*
%TO.P,D5,1,K*%
%TO.N,Net-(D1-K)*%
X168230000Y-68000000D03*
D11*
%TO.P,D5,2,A*%
%TO.N,Net-(D5-A)*%
X170770000Y-68000000D03*
%TD*%
D12*
%TO.P,C1,1*%
%TO.N,GND*%
X143750000Y-66000000D03*
D13*
%TO.P,C1,2*%
%TO.N,Net-(U1-CV)*%
X141750000Y-66000000D03*
%TD*%
D10*
%TO.P,D1,1,K*%
%TO.N,Net-(D1-K)*%
X133730000Y-43500000D03*
D11*
%TO.P,D1,2,A*%
%TO.N,Net-(D1-A)*%
X136270000Y-43500000D03*
%TD*%
D10*
%TO.P,D6,1,K*%
%TO.N,Net-(D1-K)*%
X163730000Y-43500000D03*
D11*
%TO.P,D6,2,A*%
%TO.N,Net-(D6-A)*%
X166270000Y-43500000D03*
%TD*%
D18*
%TO.P,J1,1,Pin_1*%
%TO.N,OUT*%
X152555000Y-80225000D03*
D19*
%TO.P,J1,2,Pin_2*%
%TO.N,GND*%
X150015000Y-80225000D03*
%TO.P,J1,3,Pin_3*%
%TO.N,+5V*%
X147475000Y-80225000D03*
%TD*%
D20*
%TO.N,Net-(D4-A)*%
X153900000Y-77300000D03*
%TO.N,Net-(D7-A)*%
X145520000Y-71250000D03*
X141750000Y-71250000D03*
%TO.N,Net-(D8-A)*%
X143750000Y-76250000D03*
%TO.N,OUT*%
X152000000Y-77356450D03*
%TD*%
D21*
%TO.N,Net-(D1-K)*%
X163730000Y-45150000D02*
X169500000Y-50920000D01*
X133730000Y-43500000D02*
X142230000Y-52000000D01*
X163730000Y-43500000D02*
X163730000Y-45150000D01*
X168230000Y-68000000D02*
X175730000Y-60500000D01*
X175730000Y-60500000D02*
X175730000Y-56000000D01*
X142230000Y-52000000D02*
X148730000Y-52000000D01*
X158230000Y-78000000D02*
X168230000Y-68000000D01*
%TO.N,Net-(D4-A)*%
X153900000Y-85120000D02*
X151270000Y-87750000D01*
X153900000Y-77300000D02*
X153900000Y-85120000D01*
%TO.N,Net-(D7-A)*%
X145520000Y-71250000D02*
X141750000Y-71250000D01*
%TO.N,Net-(D8-A)*%
X143750000Y-76250000D02*
X142000000Y-78000000D01*
X142000000Y-78000000D02*
X141770000Y-78000000D01*
%TO.N,+5V*%
X136815000Y-52190000D02*
X129195000Y-59810000D01*
%TO.N,OUT*%
X152000000Y-77356450D02*
X152555000Y-78011450D01*
X152555000Y-78011450D02*
X152555000Y-80225000D01*
%TD*%
%TA.AperFunction,Conductor*%
%TO.N,GND*%
G36*
X135189862Y-41108424D02*
G01*
X135929628Y-41137012D01*
X135935943Y-41137420D01*
X136673276Y-41204054D01*
X136679574Y-41204788D01*
X137412432Y-41309283D01*
X137418728Y-41310346D01*
X138145289Y-41452438D01*
X138151475Y-41453815D01*
X138869731Y-41633113D01*
X138875857Y-41634811D01*
X139583975Y-41850862D01*
X139589973Y-41852863D01*
X140285998Y-42105068D01*
X140291912Y-42107385D01*
X140974011Y-42395078D01*
X140979824Y-42397707D01*
X141578997Y-42687613D01*
X141646201Y-42720129D01*
X141651874Y-42723056D01*
X142087759Y-42962394D01*
X142300785Y-43079363D01*
X142306300Y-43082579D01*
X142803283Y-43389778D01*
X142935983Y-43471803D01*
X142941322Y-43475296D01*
X143550143Y-43896426D01*
X143555286Y-43900182D01*
X144092565Y-44314286D01*
X144141627Y-44352100D01*
X144146580Y-44356124D01*
X144212250Y-44412358D01*
X144708877Y-44837625D01*
X144713619Y-44841902D01*
X145251559Y-45352827D01*
X145253844Y-45355055D01*
X149599501Y-49700712D01*
X149692687Y-49793898D01*
X149806815Y-49859790D01*
X149934108Y-49893898D01*
X149934109Y-49893898D01*
X149934110Y-49893898D01*
X150065891Y-49893898D01*
X150065893Y-49893898D01*
X150193187Y-49859790D01*
X150307315Y-49793898D01*
X154700708Y-45400503D01*
X154700711Y-45400502D01*
X154746234Y-45354978D01*
X154748398Y-45352869D01*
X155286394Y-44841890D01*
X155291104Y-44837642D01*
X155853437Y-44356111D01*
X155858348Y-44352121D01*
X156444730Y-43900171D01*
X156449830Y-43896446D01*
X157058694Y-43475287D01*
X157063993Y-43471820D01*
X157693715Y-43082572D01*
X157699195Y-43079376D01*
X158348139Y-42723050D01*
X158353779Y-42720141D01*
X158701011Y-42552135D01*
X162329500Y-42552135D01*
X162329500Y-44447870D01*
X162329501Y-44447876D01*
X162335908Y-44507483D01*
X162386202Y-44642328D01*
X162386206Y-44642335D01*
X162472452Y-44757544D01*
X162472455Y-44757547D01*
X162587664Y-44843793D01*
X162587671Y-44843797D01*
X162632618Y-44860561D01*
X162722517Y-44894091D01*
X162782127Y-44900500D01*
X163005500Y-44900499D01*
X163014185Y-44903049D01*
X163023147Y-44901761D01*
X163047184Y-44912738D01*
X163072539Y-44920183D01*
X163078467Y-44927025D01*
X163086703Y-44930786D01*
X163100989Y-44953017D01*
X163118294Y-44972987D01*
X163120581Y-44983502D01*
X163124477Y-44989564D01*
X163129500Y-45024499D01*
X163129500Y-45063330D01*
X163129499Y-45063348D01*
X163129499Y-45229054D01*
X163129498Y-45229054D01*
X163163261Y-45355055D01*
X163170423Y-45381785D01*
X163187124Y-45410712D01*
X163199358Y-45431900D01*
X163199359Y-45431904D01*
X163199360Y-45431904D01*
X163249479Y-45518714D01*
X163249481Y-45518717D01*
X163368349Y-45637585D01*
X163368355Y-45637590D01*
X168205922Y-50475157D01*
X168239407Y-50536480D01*
X168236173Y-50601154D01*
X168234628Y-50605909D01*
X168231522Y-50615468D01*
X168199500Y-50817648D01*
X168199500Y-51022351D01*
X168231522Y-51224534D01*
X168294781Y-51419223D01*
X168387715Y-51601613D01*
X168508028Y-51767213D01*
X168652786Y-51911971D01*
X168807749Y-52024556D01*
X168818390Y-52032287D01*
X168927042Y-52087648D01*
X169000776Y-52125218D01*
X169000778Y-52125218D01*
X169000781Y-52125220D01*
X169105137Y-52159127D01*
X169195465Y-52188477D01*
X169277644Y-52201493D01*
X169397648Y-52220500D01*
X169397649Y-52220500D01*
X169602351Y-52220500D01*
X169602352Y-52220500D01*
X169804534Y-52188477D01*
X169999219Y-52125220D01*
X170181610Y-52032287D01*
X170274590Y-51964732D01*
X170347213Y-51911971D01*
X170347215Y-51911968D01*
X170347219Y-51911966D01*
X170491966Y-51767219D01*
X170491968Y-51767215D01*
X170491971Y-51767213D01*
X170561112Y-51672047D01*
X170612287Y-51601610D01*
X170705220Y-51419219D01*
X170768477Y-51224534D01*
X170800500Y-51022352D01*
X170800500Y-50817648D01*
X170788590Y-50742452D01*
X170768477Y-50615465D01*
X170705218Y-50420776D01*
X170671503Y-50354607D01*
X170612287Y-50238390D01*
X170598905Y-50219971D01*
X170491971Y-50072786D01*
X170347213Y-49928028D01*
X170181613Y-49807715D01*
X170181612Y-49807714D01*
X170181610Y-49807713D01*
X170124653Y-49778691D01*
X169999223Y-49714781D01*
X169804534Y-49651522D01*
X169629995Y-49623878D01*
X169602352Y-49619500D01*
X169397648Y-49619500D01*
X169359599Y-49625526D01*
X169195468Y-49651522D01*
X169186717Y-49654365D01*
X169181154Y-49656173D01*
X169111313Y-49658167D01*
X169055157Y-49625922D01*
X164541415Y-45112180D01*
X164507930Y-45050857D01*
X164512914Y-44981165D01*
X164554786Y-44925232D01*
X164620250Y-44900815D01*
X164629096Y-44900499D01*
X164677871Y-44900499D01*
X164677872Y-44900499D01*
X164737483Y-44894091D01*
X164872331Y-44843796D01*
X164987546Y-44757546D01*
X165073796Y-44642331D01*
X165101429Y-44568243D01*
X165103601Y-44562420D01*
X165145471Y-44506486D01*
X165210936Y-44482068D01*
X165279209Y-44496919D01*
X165307464Y-44518071D01*
X165357636Y-44568243D01*
X165357641Y-44568247D01*
X165464791Y-44646095D01*
X165535978Y-44697815D01*
X165664375Y-44763237D01*
X165732393Y-44797895D01*
X165732396Y-44797896D01*
X165837221Y-44831955D01*
X165942049Y-44866015D01*
X166159778Y-44900500D01*
X166159779Y-44900500D01*
X166380221Y-44900500D01*
X166380222Y-44900500D01*
X166597951Y-44866015D01*
X166807606Y-44797895D01*
X167004022Y-44697815D01*
X167182365Y-44568242D01*
X167338242Y-44412365D01*
X167467815Y-44234022D01*
X167567895Y-44037606D01*
X167636015Y-43827951D01*
X167670500Y-43610222D01*
X167670500Y-43389778D01*
X167636015Y-43172049D01*
X167567895Y-42962394D01*
X167567895Y-42962393D01*
X167533237Y-42894375D01*
X167467815Y-42765978D01*
X167451260Y-42743192D01*
X167338247Y-42587641D01*
X167338243Y-42587636D01*
X167182363Y-42431756D01*
X167182358Y-42431752D01*
X167004025Y-42302187D01*
X167004024Y-42302186D01*
X167004022Y-42302185D01*
X166895338Y-42246807D01*
X166807606Y-42202104D01*
X166807603Y-42202103D01*
X166597952Y-42133985D01*
X166489086Y-42116742D01*
X166380222Y-42099500D01*
X166159778Y-42099500D01*
X166087201Y-42110995D01*
X165942047Y-42133985D01*
X165732396Y-42202103D01*
X165732393Y-42202104D01*
X165535974Y-42302187D01*
X165357641Y-42431752D01*
X165357636Y-42431756D01*
X165307463Y-42481929D01*
X165246140Y-42515413D01*
X165176448Y-42510428D01*
X165120515Y-42468557D01*
X165103601Y-42437580D01*
X165073797Y-42357671D01*
X165073793Y-42357664D01*
X164987547Y-42242455D01*
X164987544Y-42242452D01*
X164872335Y-42156206D01*
X164872328Y-42156202D01*
X164737482Y-42105908D01*
X164737483Y-42105908D01*
X164677883Y-42099501D01*
X164677881Y-42099500D01*
X164677873Y-42099500D01*
X164677864Y-42099500D01*
X162782129Y-42099500D01*
X162782123Y-42099501D01*
X162722516Y-42105908D01*
X162587671Y-42156202D01*
X162587664Y-42156206D01*
X162472455Y-42242452D01*
X162472452Y-42242455D01*
X162386206Y-42357664D01*
X162386202Y-42357671D01*
X162335908Y-42492517D01*
X162329501Y-42552116D01*
X162329500Y-42552135D01*
X158701011Y-42552135D01*
X159020188Y-42397703D01*
X159025967Y-42395089D01*
X159708098Y-42107382D01*
X159713985Y-42105076D01*
X160410036Y-41852860D01*
X160416010Y-41850867D01*
X161124150Y-41634811D01*
X161130256Y-41633119D01*
X161848530Y-41453814D01*
X161854700Y-41452442D01*
X162581293Y-41310343D01*
X162587546Y-41309287D01*
X163320437Y-41204789D01*
X163326704Y-41204059D01*
X164064057Y-41137422D01*
X164070367Y-41137015D01*
X164810136Y-41108426D01*
X164816507Y-41108345D01*
X165556770Y-41117876D01*
X165563076Y-41118120D01*
X166301883Y-41165748D01*
X166308182Y-41166318D01*
X167043517Y-41251910D01*
X167049835Y-41252811D01*
X167779778Y-41376143D01*
X167786010Y-41377361D01*
X168508703Y-41538120D01*
X168514815Y-41539647D01*
X169228263Y-41737393D01*
X169234315Y-41739240D01*
X169936607Y-41973442D01*
X169942573Y-41975604D01*
X170631859Y-42245640D01*
X170637730Y-42248116D01*
X171312224Y-42553289D01*
X171317957Y-42556064D01*
X171975812Y-42895537D01*
X171981384Y-42898596D01*
X172620906Y-43271492D01*
X172626314Y-43274835D01*
X173138904Y-43610222D01*
X173245806Y-43680168D01*
X173251033Y-43683783D01*
X173848825Y-44120462D01*
X173853871Y-44124351D01*
X174428393Y-44591225D01*
X174433213Y-44595352D01*
X174952059Y-45063330D01*
X174982942Y-45091185D01*
X174987572Y-45095583D01*
X175511016Y-45619027D01*
X175515414Y-45623657D01*
X175527981Y-45637590D01*
X176011243Y-46173381D01*
X176015386Y-46178220D01*
X176482246Y-46752726D01*
X176486144Y-46757784D01*
X176922797Y-47355542D01*
X176926430Y-47360793D01*
X177331756Y-47980273D01*
X177335113Y-47985705D01*
X177707996Y-48625202D01*
X177711069Y-48630799D01*
X178050531Y-49288634D01*
X178053313Y-49294382D01*
X178358476Y-49968855D01*
X178360957Y-49974738D01*
X178630990Y-50664012D01*
X178633165Y-50670016D01*
X178737183Y-50981929D01*
X178857522Y-51342786D01*
X178867350Y-51372255D01*
X178869213Y-51378359D01*
X178880538Y-51419219D01*
X179066946Y-52091759D01*
X179068485Y-52097922D01*
X179227837Y-52814286D01*
X179229231Y-52820553D01*
X179230456Y-52826820D01*
X179353788Y-53556763D01*
X179354689Y-53563084D01*
X179440278Y-54298386D01*
X179440853Y-54304746D01*
X179480711Y-54923022D01*
X179465380Y-54991189D01*
X179415629Y-55040246D01*
X179347254Y-55054618D01*
X179281962Y-55029742D01*
X179269287Y-55018680D01*
X179182363Y-54931756D01*
X179182358Y-54931752D01*
X179004025Y-54802187D01*
X179004024Y-54802186D01*
X179004022Y-54802185D01*
X178886791Y-54742452D01*
X178807606Y-54702104D01*
X178807603Y-54702103D01*
X178597952Y-54633985D01*
X178489086Y-54616742D01*
X178380222Y-54599500D01*
X178159778Y-54599500D01*
X178087201Y-54610995D01*
X177942047Y-54633985D01*
X177732396Y-54702103D01*
X177732393Y-54702104D01*
X177535974Y-54802187D01*
X177357641Y-54931752D01*
X177357636Y-54931756D01*
X177307463Y-54981929D01*
X177246140Y-55015413D01*
X177176448Y-55010428D01*
X177120515Y-54968557D01*
X177103601Y-54937580D01*
X177073797Y-54857671D01*
X177073793Y-54857664D01*
X176987547Y-54742455D01*
X176987544Y-54742452D01*
X176872335Y-54656206D01*
X176872328Y-54656202D01*
X176737482Y-54605908D01*
X176737483Y-54605908D01*
X176677883Y-54599501D01*
X176677881Y-54599500D01*
X176677873Y-54599500D01*
X176677864Y-54599500D01*
X174782129Y-54599500D01*
X174782123Y-54599501D01*
X174722516Y-54605908D01*
X174587671Y-54656202D01*
X174587664Y-54656206D01*
X174472455Y-54742452D01*
X174472452Y-54742455D01*
X174386206Y-54857664D01*
X174386202Y-54857671D01*
X174335908Y-54992517D01*
X174329501Y-55052116D01*
X174329500Y-55052135D01*
X174329500Y-56947870D01*
X174329501Y-56947876D01*
X174335908Y-57007483D01*
X174386202Y-57142328D01*
X174386206Y-57142335D01*
X174472452Y-57257544D01*
X174472455Y-57257547D01*
X174587664Y-57343793D01*
X174587671Y-57343797D01*
X174610606Y-57352351D01*
X174722517Y-57394091D01*
X174782127Y-57400500D01*
X175005500Y-57400499D01*
X175072539Y-57420183D01*
X175118294Y-57472987D01*
X175129500Y-57524499D01*
X175129500Y-60199902D01*
X175109815Y-60266941D01*
X175093181Y-60287583D01*
X168817582Y-66563181D01*
X168756259Y-66596666D01*
X168729901Y-66599500D01*
X167282129Y-66599500D01*
X167282123Y-66599501D01*
X167222516Y-66605908D01*
X167087671Y-66656202D01*
X167087664Y-66656206D01*
X166972455Y-66742452D01*
X166972452Y-66742455D01*
X166886206Y-66857664D01*
X166886202Y-66857671D01*
X166835908Y-66992517D01*
X166829501Y-67052116D01*
X166829500Y-67052135D01*
X166829500Y-68499901D01*
X166809815Y-68566940D01*
X166793181Y-68587582D01*
X158817582Y-76563181D01*
X158756259Y-76596666D01*
X158729901Y-76599500D01*
X157282129Y-76599500D01*
X157282123Y-76599501D01*
X157222516Y-76605908D01*
X157087671Y-76656202D01*
X157087664Y-76656206D01*
X156972455Y-76742452D01*
X156972452Y-76742455D01*
X156886206Y-76857664D01*
X156886202Y-76857671D01*
X156835908Y-76992517D01*
X156829501Y-77052116D01*
X156829500Y-77052135D01*
X156829500Y-78947870D01*
X156829501Y-78947876D01*
X156835908Y-79007483D01*
X156886202Y-79142328D01*
X156886206Y-79142335D01*
X156972452Y-79257544D01*
X156972455Y-79257547D01*
X157087664Y-79343793D01*
X157087671Y-79343797D01*
X157222517Y-79394091D01*
X157222516Y-79394091D01*
X157229444Y-79394835D01*
X157282127Y-79400500D01*
X159177872Y-79400499D01*
X159237483Y-79394091D01*
X159372331Y-79343796D01*
X159487546Y-79257546D01*
X159573796Y-79142331D01*
X159585956Y-79109728D01*
X159603601Y-79062420D01*
X159645471Y-79006486D01*
X159710936Y-78982068D01*
X159779209Y-78996919D01*
X159807464Y-79018071D01*
X159857636Y-79068243D01*
X159857641Y-79068247D01*
X159946314Y-79132671D01*
X160035978Y-79197815D01*
X160164375Y-79263237D01*
X160232393Y-79297895D01*
X160232396Y-79297896D01*
X160322328Y-79327116D01*
X160442049Y-79366015D01*
X160659778Y-79400500D01*
X160659779Y-79400500D01*
X160880221Y-79400500D01*
X160880222Y-79400500D01*
X161097951Y-79366015D01*
X161307606Y-79297895D01*
X161504022Y-79197815D01*
X161682365Y-79068242D01*
X161838242Y-78912365D01*
X161967815Y-78734022D01*
X162067895Y-78537606D01*
X162136015Y-78327951D01*
X162170500Y-78110222D01*
X162170500Y-77889778D01*
X162136015Y-77672049D01*
X162090999Y-77533501D01*
X162067896Y-77462396D01*
X162067895Y-77462393D01*
X161998813Y-77326815D01*
X161967815Y-77265978D01*
X161863902Y-77122953D01*
X161838247Y-77087641D01*
X161838243Y-77087636D01*
X161682363Y-76931756D01*
X161682358Y-76931752D01*
X161504025Y-76802187D01*
X161504024Y-76802186D01*
X161504022Y-76802185D01*
X161441096Y-76770122D01*
X161307606Y-76702104D01*
X161307603Y-76702103D01*
X161097952Y-76633985D01*
X160989086Y-76616742D01*
X160880222Y-76599500D01*
X160779096Y-76599500D01*
X160712057Y-76579815D01*
X160666302Y-76527011D01*
X160656358Y-76457853D01*
X160685383Y-76394297D01*
X160691415Y-76387819D01*
X164101587Y-72977648D01*
X167642417Y-69436818D01*
X167703740Y-69403333D01*
X167730098Y-69400499D01*
X169177871Y-69400499D01*
X169177872Y-69400499D01*
X169237483Y-69394091D01*
X169372331Y-69343796D01*
X169487546Y-69257546D01*
X169573796Y-69142331D01*
X169601429Y-69068243D01*
X169603601Y-69062420D01*
X169645471Y-69006486D01*
X169710936Y-68982068D01*
X169779209Y-68996919D01*
X169807464Y-69018071D01*
X169857636Y-69068243D01*
X169857641Y-69068247D01*
X169945029Y-69131737D01*
X170035978Y-69197815D01*
X170164375Y-69263237D01*
X170232393Y-69297895D01*
X170232396Y-69297896D01*
X170333531Y-69330756D01*
X170442049Y-69366015D01*
X170659778Y-69400500D01*
X170659779Y-69400500D01*
X170880221Y-69400500D01*
X170880222Y-69400500D01*
X171097951Y-69366015D01*
X171307606Y-69297895D01*
X171504022Y-69197815D01*
X171682365Y-69068242D01*
X171838242Y-68912365D01*
X171967815Y-68734022D01*
X172067895Y-68537606D01*
X172136015Y-68327951D01*
X172170500Y-68110222D01*
X172170500Y-67889778D01*
X172136015Y-67672049D01*
X172067895Y-67462394D01*
X172067895Y-67462393D01*
X172033237Y-67394375D01*
X171967815Y-67265978D01*
X171909501Y-67185715D01*
X171838247Y-67087641D01*
X171838243Y-67087636D01*
X171682363Y-66931756D01*
X171682358Y-66931752D01*
X171504025Y-66802187D01*
X171504024Y-66802186D01*
X171504022Y-66802185D01*
X171386791Y-66742452D01*
X171307606Y-66702104D01*
X171307603Y-66702103D01*
X171097952Y-66633985D01*
X170989086Y-66616742D01*
X170880222Y-66599500D01*
X170779096Y-66599500D01*
X170712057Y-66579815D01*
X170666302Y-66527011D01*
X170656358Y-66457853D01*
X170685383Y-66394297D01*
X170691415Y-66387819D01*
X171877434Y-65201800D01*
X176210520Y-60868716D01*
X176289577Y-60731784D01*
X176330501Y-60579057D01*
X176330501Y-60420942D01*
X176330501Y-60413347D01*
X176330500Y-60413329D01*
X176330500Y-57524499D01*
X176350185Y-57457460D01*
X176402989Y-57411705D01*
X176454500Y-57400499D01*
X176677871Y-57400499D01*
X176677872Y-57400499D01*
X176737483Y-57394091D01*
X176872331Y-57343796D01*
X176987546Y-57257546D01*
X177073796Y-57142331D01*
X177081344Y-57122094D01*
X177103601Y-57062420D01*
X177145471Y-57006486D01*
X177210936Y-56982068D01*
X177279209Y-56996919D01*
X177307464Y-57018071D01*
X177357636Y-57068243D01*
X177357641Y-57068247D01*
X177486915Y-57162169D01*
X177535978Y-57197815D01*
X177664375Y-57263237D01*
X177732393Y-57297895D01*
X177732396Y-57297896D01*
X177747062Y-57302661D01*
X177942049Y-57366015D01*
X178159778Y-57400500D01*
X178159779Y-57400500D01*
X178380221Y-57400500D01*
X178380222Y-57400500D01*
X178597951Y-57366015D01*
X178807606Y-57297895D01*
X179004022Y-57197815D01*
X179182365Y-57068242D01*
X179203464Y-57047142D01*
X179227636Y-57033942D01*
X179249994Y-57017850D01*
X179257865Y-57017435D01*
X179264784Y-57013657D01*
X179292263Y-57015621D01*
X179319767Y-57014172D01*
X179326612Y-57018077D01*
X179334476Y-57018640D01*
X179356529Y-57035148D01*
X179380453Y-57048799D01*
X179384100Y-57055787D01*
X179390411Y-57060511D01*
X179400038Y-57086321D01*
X179412783Y-57110738D01*
X179413382Y-57122094D01*
X179414829Y-57125974D01*
X179414642Y-57145983D01*
X179402544Y-57279856D01*
X179401805Y-57286199D01*
X179297315Y-58019029D01*
X179296252Y-58025326D01*
X179154164Y-58751866D01*
X179152777Y-58758099D01*
X178973487Y-59476318D01*
X178971782Y-59482471D01*
X178755745Y-60190546D01*
X178753724Y-60196604D01*
X178501535Y-60892583D01*
X178499206Y-60898528D01*
X178211519Y-61580611D01*
X178208887Y-61586429D01*
X177886464Y-62252810D01*
X177883536Y-62258485D01*
X177527239Y-62907378D01*
X177524022Y-62912894D01*
X177134794Y-63542584D01*
X177131298Y-63547927D01*
X176710174Y-64156739D01*
X176706408Y-64161895D01*
X176254496Y-64748228D01*
X176250468Y-64753184D01*
X175768970Y-65315477D01*
X175764694Y-65320219D01*
X175253668Y-65858266D01*
X175251439Y-65860552D01*
X152809662Y-88302329D01*
X152748339Y-88335814D01*
X152678647Y-88330830D01*
X152622714Y-88288958D01*
X152598297Y-88223494D01*
X152604050Y-88176330D01*
X152615163Y-88142128D01*
X152636015Y-88077951D01*
X152670500Y-87860222D01*
X152670500Y-87639778D01*
X152636015Y-87422049D01*
X152613188Y-87351794D01*
X152611193Y-87281953D01*
X152643436Y-87225797D01*
X154380520Y-85488716D01*
X154459577Y-85351784D01*
X154500501Y-85199057D01*
X154500501Y-85040942D01*
X154500501Y-85033347D01*
X154500500Y-85033329D01*
X154500500Y-77879765D01*
X154520185Y-77812726D01*
X154521398Y-77810874D01*
X154609390Y-77679185D01*
X154609390Y-77679184D01*
X154609394Y-77679179D01*
X154669737Y-77533497D01*
X154700500Y-77378842D01*
X154700500Y-77221158D01*
X154700500Y-77221155D01*
X154700499Y-77221153D01*
X154680967Y-77122960D01*
X154669737Y-77066503D01*
X154663165Y-77050637D01*
X154609397Y-76920827D01*
X154609390Y-76920814D01*
X154521789Y-76789711D01*
X154521786Y-76789707D01*
X154410292Y-76678213D01*
X154410288Y-76678210D01*
X154279185Y-76590609D01*
X154279172Y-76590602D01*
X154133501Y-76530264D01*
X154133489Y-76530261D01*
X153978845Y-76499500D01*
X153978842Y-76499500D01*
X153821158Y-76499500D01*
X153821155Y-76499500D01*
X153666510Y-76530261D01*
X153666498Y-76530264D01*
X153520827Y-76590602D01*
X153520814Y-76590609D01*
X153389711Y-76678210D01*
X153389707Y-76678213D01*
X153278213Y-76789707D01*
X153278210Y-76789711D01*
X153190609Y-76920814D01*
X153190602Y-76920827D01*
X153130264Y-77066498D01*
X153130261Y-77066510D01*
X153099500Y-77221153D01*
X153099500Y-77384934D01*
X153097281Y-77384934D01*
X153092991Y-77407507D01*
X153087947Y-77440034D01*
X153086502Y-77441663D01*
X153086096Y-77443805D01*
X153063438Y-77467693D01*
X153041611Y-77492328D01*
X153039513Y-77492918D01*
X153038015Y-77494499D01*
X153006041Y-77502345D01*
X152974358Y-77511269D01*
X152972275Y-77510632D01*
X152970158Y-77511152D01*
X152939006Y-77500462D01*
X152907540Y-77490844D01*
X152905369Y-77488920D01*
X152904071Y-77488475D01*
X152881131Y-77467444D01*
X152829893Y-77406974D01*
X152801574Y-77343102D01*
X152800500Y-77326815D01*
X152800500Y-77277605D01*
X152800499Y-77277603D01*
X152769738Y-77122960D01*
X152769737Y-77122953D01*
X152769735Y-77122948D01*
X152709397Y-76977277D01*
X152709390Y-76977264D01*
X152621789Y-76846161D01*
X152621786Y-76846157D01*
X152510292Y-76734663D01*
X152510288Y-76734660D01*
X152379185Y-76647059D01*
X152379172Y-76647052D01*
X152233501Y-76586714D01*
X152233489Y-76586711D01*
X152078845Y-76555950D01*
X152078842Y-76555950D01*
X151921158Y-76555950D01*
X151921155Y-76555950D01*
X151766510Y-76586711D01*
X151766498Y-76586714D01*
X151620827Y-76647052D01*
X151620814Y-76647059D01*
X151489711Y-76734660D01*
X151489707Y-76734663D01*
X151378213Y-76846157D01*
X151378210Y-76846161D01*
X151290609Y-76977264D01*
X151290602Y-76977277D01*
X151230264Y-77122948D01*
X151230261Y-77122960D01*
X151199500Y-77277603D01*
X151199500Y-77435296D01*
X151230261Y-77589939D01*
X151230264Y-77589951D01*
X151290602Y-77735622D01*
X151290609Y-77735635D01*
X151378210Y-77866738D01*
X151378213Y-77866742D01*
X151489707Y-77978236D01*
X151489711Y-77978239D01*
X151620814Y-78065840D01*
X151620827Y-78065847D01*
X151708230Y-78102049D01*
X151766503Y-78126187D01*
X151842691Y-78141341D01*
X151863848Y-78152408D01*
X151886687Y-78159389D01*
X151900368Y-78171511D01*
X151904600Y-78173725D01*
X151913103Y-78182795D01*
X151925104Y-78196958D01*
X151953425Y-78260831D01*
X151954500Y-78277121D01*
X151954500Y-78750500D01*
X151934815Y-78817539D01*
X151882011Y-78863294D01*
X151830501Y-78874500D01*
X151657130Y-78874500D01*
X151657123Y-78874501D01*
X151597516Y-78880908D01*
X151462671Y-78931202D01*
X151462664Y-78931206D01*
X151347455Y-79017452D01*
X151347452Y-79017455D01*
X151261206Y-79132664D01*
X151261202Y-79132671D01*
X151210908Y-79267517D01*
X151204501Y-79327116D01*
X151204500Y-79327135D01*
X151204500Y-79337690D01*
X151184815Y-79404729D01*
X151168181Y-79425371D01*
X150497962Y-80095590D01*
X150480925Y-80032007D01*
X150415099Y-79917993D01*
X150322007Y-79824901D01*
X150207993Y-79759075D01*
X150144409Y-79742037D01*
X150776716Y-79109728D01*
X150722550Y-79070375D01*
X150533217Y-78973904D01*
X150331129Y-78908242D01*
X150121246Y-78875000D01*
X149908754Y-78875000D01*
X149698872Y-78908242D01*
X149698869Y-78908242D01*
X149496782Y-78973904D01*
X149307439Y-79070380D01*
X149253282Y-79109727D01*
X149253282Y-79109728D01*
X149885591Y-79742037D01*
X149822007Y-79759075D01*
X149707993Y-79824901D01*
X149614901Y-79917993D01*
X149549075Y-80032007D01*
X149532037Y-80095591D01*
X148899728Y-79463282D01*
X148899727Y-79463282D01*
X148860380Y-79517440D01*
X148860376Y-79517446D01*
X148855760Y-79526505D01*
X148807781Y-79577297D01*
X148739959Y-79594087D01*
X148673826Y-79571543D01*
X148634794Y-79526493D01*
X148630051Y-79517184D01*
X148630049Y-79517181D01*
X148630048Y-79517179D01*
X148505109Y-79345213D01*
X148354786Y-79194890D01*
X148182820Y-79069951D01*
X147993414Y-78973444D01*
X147993413Y-78973443D01*
X147993412Y-78973443D01*
X147791243Y-78907754D01*
X147791241Y-78907753D01*
X147791240Y-78907753D01*
X147629957Y-78882208D01*
X147581287Y-78874500D01*
X147368713Y-78874500D01*
X147320042Y-78882208D01*
X147158760Y-78907753D01*
X146956585Y-78973444D01*
X146767179Y-79069951D01*
X146595213Y-79194890D01*
X146444890Y-79345213D01*
X146319951Y-79517179D01*
X146223444Y-79706585D01*
X146157753Y-79908760D01*
X146124500Y-80118713D01*
X146124500Y-80331286D01*
X146157753Y-80541239D01*
X146223444Y-80743414D01*
X146319951Y-80932820D01*
X146444890Y-81104786D01*
X146595213Y-81255109D01*
X146767179Y-81380048D01*
X146767181Y-81380049D01*
X146767184Y-81380051D01*
X146956588Y-81476557D01*
X147158757Y-81542246D01*
X147368713Y-81575500D01*
X147368714Y-81575500D01*
X147581286Y-81575500D01*
X147581287Y-81575500D01*
X147791243Y-81542246D01*
X147993412Y-81476557D01*
X148182816Y-81380051D01*
X148269138Y-81317335D01*
X148354786Y-81255109D01*
X148354788Y-81255106D01*
X148354792Y-81255104D01*
X148505104Y-81104792D01*
X148505106Y-81104788D01*
X148505109Y-81104786D01*
X148572515Y-81012007D01*
X148630051Y-80932816D01*
X148634793Y-80923508D01*
X148682763Y-80872711D01*
X148750583Y-80855911D01*
X148816719Y-80878445D01*
X148855763Y-80923500D01*
X148860373Y-80932547D01*
X148899728Y-80986716D01*
X149532037Y-80354408D01*
X149549075Y-80417993D01*
X149614901Y-80532007D01*
X149707993Y-80625099D01*
X149822007Y-80690925D01*
X149885590Y-80707962D01*
X149253282Y-81340269D01*
X149253282Y-81340270D01*
X149307449Y-81379624D01*
X149496782Y-81476095D01*
X149698870Y-81541757D01*
X149908754Y-81575000D01*
X150121246Y-81575000D01*
X150331127Y-81541757D01*
X150331130Y-81541757D01*
X150533217Y-81476095D01*
X150722554Y-81379622D01*
X150776716Y-81340270D01*
X150776717Y-81340270D01*
X150144408Y-80707962D01*
X150207993Y-80690925D01*
X150322007Y-80625099D01*
X150415099Y-80532007D01*
X150480925Y-80417993D01*
X150497962Y-80354409D01*
X151168181Y-81024628D01*
X151201666Y-81085951D01*
X151204500Y-81112300D01*
X151204500Y-81122865D01*
X151204501Y-81122876D01*
X151210908Y-81182483D01*
X151261202Y-81317328D01*
X151261206Y-81317335D01*
X151347452Y-81432544D01*
X151347455Y-81432547D01*
X151462664Y-81518793D01*
X151462671Y-81518797D01*
X151597517Y-81569091D01*
X151597516Y-81569091D01*
X151604444Y-81569835D01*
X151657127Y-81575500D01*
X153175500Y-81575499D01*
X153242539Y-81595184D01*
X153288294Y-81647987D01*
X153299500Y-81699499D01*
X153299500Y-84819902D01*
X153279815Y-84886941D01*
X153263181Y-84907583D01*
X151794202Y-86376561D01*
X151732879Y-86410046D01*
X151668203Y-86406811D01*
X151643584Y-86398812D01*
X151597952Y-86383985D01*
X151489086Y-86366742D01*
X151380222Y-86349500D01*
X151159778Y-86349500D01*
X151087201Y-86360995D01*
X150942047Y-86383985D01*
X150732396Y-86452103D01*
X150732393Y-86452104D01*
X150535974Y-86552187D01*
X150357641Y-86681752D01*
X150357636Y-86681756D01*
X150307463Y-86731929D01*
X150246140Y-86765413D01*
X150176448Y-86760428D01*
X150120515Y-86718557D01*
X150103601Y-86687580D01*
X150073797Y-86607671D01*
X150073793Y-86607664D01*
X149987547Y-86492455D01*
X149987544Y-86492452D01*
X149872335Y-86406206D01*
X149872328Y-86406202D01*
X149737482Y-86355908D01*
X149737483Y-86355908D01*
X149677883Y-86349501D01*
X149677881Y-86349500D01*
X149677873Y-86349500D01*
X149677864Y-86349500D01*
X147782129Y-86349500D01*
X147782123Y-86349501D01*
X147722516Y-86355908D01*
X147587671Y-86406202D01*
X147587664Y-86406206D01*
X147472455Y-86492452D01*
X147472452Y-86492455D01*
X147386206Y-86607664D01*
X147386202Y-86607671D01*
X147335908Y-86742517D01*
X147329501Y-86802116D01*
X147329500Y-86802135D01*
X147329500Y-88142128D01*
X147309815Y-88209167D01*
X147257011Y-88254922D01*
X147187853Y-88264866D01*
X147124297Y-88235841D01*
X147117819Y-88229809D01*
X138500190Y-79612180D01*
X138466705Y-79550857D01*
X138471689Y-79481165D01*
X138513561Y-79425232D01*
X138579025Y-79400815D01*
X138587871Y-79400499D01*
X140177871Y-79400499D01*
X140177872Y-79400499D01*
X140237483Y-79394091D01*
X140372331Y-79343796D01*
X140487546Y-79257546D01*
X140573796Y-79142331D01*
X140585956Y-79109728D01*
X140603601Y-79062420D01*
X140645471Y-79006486D01*
X140710936Y-78982068D01*
X140779209Y-78996919D01*
X140807464Y-79018071D01*
X140857636Y-79068243D01*
X140857641Y-79068247D01*
X140946314Y-79132671D01*
X141035978Y-79197815D01*
X141164375Y-79263237D01*
X141232393Y-79297895D01*
X141232396Y-79297896D01*
X141322328Y-79327116D01*
X141442049Y-79366015D01*
X141659778Y-79400500D01*
X141659779Y-79400500D01*
X141880221Y-79400500D01*
X141880222Y-79400500D01*
X142097951Y-79366015D01*
X142307606Y-79297895D01*
X142504022Y-79197815D01*
X142682365Y-79068242D01*
X142838242Y-78912365D01*
X142967815Y-78734022D01*
X143067895Y-78537606D01*
X143136015Y-78327951D01*
X143170500Y-78110222D01*
X143170500Y-77889778D01*
X143151527Y-77769991D01*
X143160481Y-77700701D01*
X143186316Y-77662918D01*
X143764664Y-77084571D01*
X143825985Y-77051088D01*
X143828152Y-77050637D01*
X143828841Y-77050500D01*
X143828842Y-77050500D01*
X143983497Y-77019737D01*
X144129179Y-76959394D01*
X144260289Y-76871789D01*
X144371789Y-76760289D01*
X144459394Y-76629179D01*
X144519737Y-76483497D01*
X144550500Y-76328842D01*
X144550500Y-76171158D01*
X144550500Y-76171155D01*
X144550499Y-76171153D01*
X144519738Y-76016510D01*
X144519738Y-76016508D01*
X144519737Y-76016503D01*
X144519735Y-76016498D01*
X144459397Y-75870827D01*
X144459390Y-75870814D01*
X144371789Y-75739711D01*
X144371786Y-75739707D01*
X144260292Y-75628213D01*
X144260288Y-75628210D01*
X144129185Y-75540609D01*
X144129172Y-75540602D01*
X143983501Y-75480264D01*
X143983489Y-75480261D01*
X143828845Y-75449500D01*
X143828842Y-75449500D01*
X143671158Y-75449500D01*
X143671155Y-75449500D01*
X143516510Y-75480261D01*
X143516498Y-75480264D01*
X143370827Y-75540602D01*
X143370814Y-75540609D01*
X143239711Y-75628210D01*
X143239707Y-75628213D01*
X143128213Y-75739707D01*
X143128210Y-75739711D01*
X143040609Y-75870814D01*
X143040602Y-75870827D01*
X142980264Y-76016498D01*
X142980261Y-76016508D01*
X142949362Y-76171848D01*
X142916977Y-76233759D01*
X142915426Y-76235337D01*
X142464751Y-76686011D01*
X142403428Y-76719496D01*
X142333736Y-76714512D01*
X142320774Y-76708814D01*
X142307610Y-76702106D01*
X142307603Y-76702103D01*
X142097952Y-76633985D01*
X141989086Y-76616742D01*
X141880222Y-76599500D01*
X141659778Y-76599500D01*
X141587201Y-76610995D01*
X141442047Y-76633985D01*
X141232396Y-76702103D01*
X141232393Y-76702104D01*
X141035974Y-76802187D01*
X140857641Y-76931752D01*
X140857636Y-76931756D01*
X140807463Y-76981929D01*
X140746140Y-77015413D01*
X140676448Y-77010428D01*
X140620515Y-76968557D01*
X140603601Y-76937580D01*
X140573797Y-76857671D01*
X140573793Y-76857664D01*
X140487547Y-76742455D01*
X140487544Y-76742452D01*
X140372335Y-76656206D01*
X140372328Y-76656202D01*
X140237482Y-76605908D01*
X140237483Y-76605908D01*
X140177883Y-76599501D01*
X140177881Y-76599500D01*
X140177873Y-76599500D01*
X140177864Y-76599500D01*
X138282129Y-76599500D01*
X138282123Y-76599501D01*
X138222516Y-76605908D01*
X138087671Y-76656202D01*
X138087664Y-76656206D01*
X137972455Y-76742452D01*
X137972452Y-76742455D01*
X137886206Y-76857664D01*
X137886202Y-76857671D01*
X137835908Y-76992517D01*
X137829501Y-77052116D01*
X137829500Y-77052135D01*
X137829500Y-78642128D01*
X137809815Y-78709167D01*
X137757011Y-78754922D01*
X137687853Y-78764866D01*
X137624297Y-78735841D01*
X137617819Y-78729809D01*
X130059163Y-71171153D01*
X140949500Y-71171153D01*
X140949500Y-71328846D01*
X140980261Y-71483489D01*
X140980264Y-71483501D01*
X141040602Y-71629172D01*
X141040609Y-71629185D01*
X141128210Y-71760288D01*
X141128213Y-71760292D01*
X141239707Y-71871786D01*
X141239711Y-71871789D01*
X141370814Y-71959390D01*
X141370827Y-71959397D01*
X141449894Y-71992147D01*
X141516503Y-72019737D01*
X141671153Y-72050499D01*
X141671156Y-72050500D01*
X141671158Y-72050500D01*
X141828844Y-72050500D01*
X141828845Y-72050499D01*
X141983497Y-72019737D01*
X142129179Y-71959394D01*
X142183663Y-71922989D01*
X142260875Y-71871398D01*
X142327553Y-71850520D01*
X142329766Y-71850500D01*
X144018085Y-71850500D01*
X144085124Y-71870185D01*
X144130879Y-71922989D01*
X144140823Y-71992147D01*
X144111798Y-72055703D01*
X144090970Y-72074818D01*
X144072787Y-72088028D01*
X144072782Y-72088032D01*
X143928028Y-72232786D01*
X143807715Y-72398386D01*
X143714781Y-72580776D01*
X143651522Y-72775465D01*
X143619500Y-72977648D01*
X143619500Y-73182351D01*
X143651522Y-73384534D01*
X143714781Y-73579223D01*
X143807715Y-73761613D01*
X143928028Y-73927213D01*
X144072786Y-74071971D01*
X144227749Y-74184556D01*
X144238390Y-74192287D01*
X144354607Y-74251503D01*
X144420776Y-74285218D01*
X144420778Y-74285218D01*
X144420781Y-74285220D01*
X144525137Y-74319127D01*
X144615465Y-74348477D01*
X144716557Y-74364488D01*
X144817648Y-74380500D01*
X144817649Y-74380500D01*
X145022351Y-74380500D01*
X145022352Y-74380500D01*
X145224534Y-74348477D01*
X145419219Y-74285220D01*
X145601610Y-74192287D01*
X145694590Y-74124732D01*
X145767213Y-74071971D01*
X145767215Y-74071968D01*
X145767219Y-74071966D01*
X145911966Y-73927219D01*
X145911968Y-73927215D01*
X145911971Y-73927213D01*
X145964732Y-73854590D01*
X146032287Y-73761610D01*
X146125220Y-73579219D01*
X146188477Y-73384534D01*
X146220500Y-73182352D01*
X146220500Y-72977648D01*
X153779500Y-72977648D01*
X153779500Y-73182351D01*
X153811522Y-73384534D01*
X153874781Y-73579223D01*
X153967715Y-73761613D01*
X154088028Y-73927213D01*
X154232786Y-74071971D01*
X154387749Y-74184556D01*
X154398390Y-74192287D01*
X154514607Y-74251503D01*
X154580776Y-74285218D01*
X154580778Y-74285218D01*
X154580781Y-74285220D01*
X154685137Y-74319127D01*
X154775465Y-74348477D01*
X154876557Y-74364488D01*
X154977648Y-74380500D01*
X154977649Y-74380500D01*
X155182351Y-74380500D01*
X155182352Y-74380500D01*
X155384534Y-74348477D01*
X155579219Y-74285220D01*
X155761610Y-74192287D01*
X155854590Y-74124732D01*
X155927213Y-74071971D01*
X155927215Y-74071968D01*
X155927219Y-74071966D01*
X156071966Y-73927219D01*
X156071968Y-73927215D01*
X156071971Y-73927213D01*
X156124732Y-73854590D01*
X156192287Y-73761610D01*
X156285220Y-73579219D01*
X156348477Y-73384534D01*
X156380500Y-73182352D01*
X156380500Y-72977648D01*
X156348477Y-72775466D01*
X156285220Y-72580781D01*
X156285218Y-72580778D01*
X156285218Y-72580776D01*
X156251503Y-72514607D01*
X156192287Y-72398390D01*
X156184556Y-72387749D01*
X156071971Y-72232786D01*
X155927213Y-72088028D01*
X155761613Y-71967715D01*
X155761612Y-71967714D01*
X155761610Y-71967713D01*
X155704653Y-71938691D01*
X155579223Y-71874781D01*
X155384534Y-71811522D01*
X155209995Y-71783878D01*
X155182352Y-71779500D01*
X154977648Y-71779500D01*
X154953329Y-71783351D01*
X154775465Y-71811522D01*
X154580776Y-71874781D01*
X154398386Y-71967715D01*
X154232786Y-72088028D01*
X154088028Y-72232786D01*
X153967715Y-72398386D01*
X153874781Y-72580776D01*
X153811522Y-72775465D01*
X153779500Y-72977648D01*
X146220500Y-72977648D01*
X146188477Y-72775466D01*
X146125220Y-72580781D01*
X146125218Y-72580778D01*
X146125218Y-72580776D01*
X146091503Y-72514607D01*
X146032287Y-72398390D01*
X146024556Y-72387749D01*
X145911971Y-72232786D01*
X145846131Y-72166946D01*
X145812646Y-72105623D01*
X145817630Y-72035931D01*
X145859502Y-71979998D01*
X145886358Y-71964704D01*
X145899179Y-71959394D01*
X146030289Y-71871789D01*
X146141789Y-71760289D01*
X146229394Y-71629179D01*
X146289737Y-71483497D01*
X146320500Y-71328842D01*
X146320500Y-71171158D01*
X146320500Y-71171155D01*
X146320499Y-71171153D01*
X146289738Y-71016510D01*
X146289737Y-71016503D01*
X146289735Y-71016498D01*
X146229397Y-70870827D01*
X146229390Y-70870814D01*
X146141789Y-70739711D01*
X146141786Y-70739707D01*
X146030292Y-70628213D01*
X146030288Y-70628210D01*
X145899185Y-70540609D01*
X145899172Y-70540602D01*
X145753501Y-70480264D01*
X145753489Y-70480261D01*
X145598845Y-70449500D01*
X145598842Y-70449500D01*
X145441158Y-70449500D01*
X145441155Y-70449500D01*
X145286510Y-70480261D01*
X145286498Y-70480264D01*
X145140827Y-70540602D01*
X145140814Y-70540609D01*
X145009125Y-70628602D01*
X144942447Y-70649480D01*
X144940234Y-70649500D01*
X142329766Y-70649500D01*
X142262727Y-70629815D01*
X142260875Y-70628602D01*
X142129185Y-70540609D01*
X142129172Y-70540602D01*
X141983501Y-70480264D01*
X141983489Y-70480261D01*
X141828845Y-70449500D01*
X141828842Y-70449500D01*
X141671158Y-70449500D01*
X141671155Y-70449500D01*
X141516510Y-70480261D01*
X141516498Y-70480264D01*
X141370827Y-70540602D01*
X141370814Y-70540609D01*
X141239711Y-70628210D01*
X141239707Y-70628213D01*
X141128213Y-70739707D01*
X141128210Y-70739711D01*
X141040609Y-70870814D01*
X141040602Y-70870827D01*
X140980264Y-71016498D01*
X140980261Y-71016510D01*
X140949500Y-71171153D01*
X130059163Y-71171153D01*
X128500190Y-69612180D01*
X128466705Y-69550857D01*
X128471689Y-69481165D01*
X128513561Y-69425232D01*
X128579025Y-69400815D01*
X128587871Y-69400499D01*
X130177871Y-69400499D01*
X130177872Y-69400499D01*
X130237483Y-69394091D01*
X130372331Y-69343796D01*
X130487546Y-69257546D01*
X130573796Y-69142331D01*
X130601429Y-69068243D01*
X130603601Y-69062420D01*
X130645471Y-69006486D01*
X130710936Y-68982068D01*
X130779209Y-68996919D01*
X130807464Y-69018071D01*
X130857636Y-69068243D01*
X130857641Y-69068247D01*
X130945029Y-69131737D01*
X131035978Y-69197815D01*
X131164375Y-69263237D01*
X131232393Y-69297895D01*
X131232396Y-69297896D01*
X131333531Y-69330756D01*
X131442049Y-69366015D01*
X131659778Y-69400500D01*
X131659779Y-69400500D01*
X131880221Y-69400500D01*
X131880222Y-69400500D01*
X132097951Y-69366015D01*
X132307606Y-69297895D01*
X132504022Y-69197815D01*
X132682365Y-69068242D01*
X132838242Y-68912365D01*
X132920121Y-68799668D01*
X155042300Y-68799668D01*
X155042300Y-68980331D01*
X155070559Y-69158750D01*
X155126386Y-69330566D01*
X155208401Y-69491529D01*
X155219558Y-69506886D01*
X155219559Y-69506886D01*
X155796300Y-68930145D01*
X155796300Y-68941832D01*
X155823130Y-69041962D01*
X155874962Y-69131737D01*
X155948263Y-69205038D01*
X156038038Y-69256870D01*
X156138168Y-69283700D01*
X156149853Y-69283700D01*
X155573112Y-69860438D01*
X155573112Y-69860439D01*
X155588477Y-69871602D01*
X155749433Y-69953613D01*
X155921249Y-70009440D01*
X156099669Y-70037700D01*
X156280331Y-70037700D01*
X156458750Y-70009440D01*
X156630566Y-69953613D01*
X156791528Y-69871599D01*
X156791532Y-69871597D01*
X156806886Y-69860440D01*
X156806887Y-69860439D01*
X156230148Y-69283700D01*
X156241832Y-69283700D01*
X156341962Y-69256870D01*
X156431737Y-69205038D01*
X156505038Y-69131737D01*
X156556870Y-69041962D01*
X156583700Y-68941832D01*
X156583700Y-68930147D01*
X157160440Y-69506887D01*
X157160440Y-69506886D01*
X157171597Y-69491532D01*
X157171599Y-69491528D01*
X157253613Y-69330566D01*
X157309440Y-69158750D01*
X157337700Y-68980331D01*
X157337700Y-68799668D01*
X157337695Y-68799635D01*
X162661800Y-68799635D01*
X162661800Y-68980364D01*
X162690053Y-69158750D01*
X162690073Y-69158871D01*
X162745922Y-69330756D01*
X162827840Y-69491529D01*
X162827974Y-69491791D01*
X162934196Y-69637996D01*
X163062003Y-69765803D01*
X163192260Y-69860438D01*
X163208212Y-69872028D01*
X163369244Y-69954078D01*
X163541129Y-70009927D01*
X163719635Y-70038200D01*
X163719636Y-70038200D01*
X163900364Y-70038200D01*
X163900365Y-70038200D01*
X164078871Y-70009927D01*
X164250756Y-69954078D01*
X164411788Y-69872028D01*
X164493879Y-69812385D01*
X164557996Y-69765803D01*
X164557998Y-69765800D01*
X164558002Y-69765798D01*
X164685798Y-69638002D01*
X164685800Y-69637998D01*
X164685803Y-69637996D01*
X164749112Y-69550857D01*
X164792028Y-69491788D01*
X164874078Y-69330756D01*
X164929927Y-69158871D01*
X164958200Y-68980365D01*
X164958200Y-68799635D01*
X164929927Y-68621129D01*
X164874078Y-68449244D01*
X164792028Y-68288212D01*
X164781057Y-68273112D01*
X164685803Y-68142003D01*
X164557996Y-68014196D01*
X164411791Y-67907974D01*
X164411790Y-67907973D01*
X164411788Y-67907972D01*
X164250756Y-67825922D01*
X164078871Y-67770073D01*
X164078869Y-67770072D01*
X164078867Y-67770072D01*
X163965420Y-67752103D01*
X163900365Y-67741800D01*
X163719635Y-67741800D01*
X163705745Y-67744000D01*
X163541132Y-67770072D01*
X163369241Y-67825923D01*
X163208208Y-67907974D01*
X163062003Y-68014196D01*
X162934196Y-68142003D01*
X162827974Y-68288208D01*
X162745923Y-68449241D01*
X162745922Y-68449243D01*
X162745922Y-68449244D01*
X162721915Y-68523130D01*
X162690072Y-68621132D01*
X162661800Y-68799635D01*
X157337695Y-68799635D01*
X157309440Y-68621249D01*
X157253613Y-68449433D01*
X157171602Y-68288477D01*
X157160439Y-68273112D01*
X156583700Y-68849851D01*
X156583700Y-68838168D01*
X156556870Y-68738038D01*
X156505038Y-68648263D01*
X156431737Y-68574962D01*
X156341962Y-68523130D01*
X156241832Y-68496300D01*
X156230147Y-68496300D01*
X156806886Y-67919559D01*
X156806886Y-67919558D01*
X156791529Y-67908401D01*
X156630566Y-67826386D01*
X156458750Y-67770559D01*
X156458752Y-67770559D01*
X156292658Y-67744252D01*
X156087341Y-67744252D01*
X155921248Y-67770559D01*
X155749433Y-67826386D01*
X155588476Y-67908397D01*
X155588472Y-67908400D01*
X155573112Y-67919558D01*
X155573112Y-67919559D01*
X156149854Y-68496300D01*
X156138168Y-68496300D01*
X156038038Y-68523130D01*
X155948263Y-68574962D01*
X155874962Y-68648263D01*
X155823130Y-68738038D01*
X155796300Y-68838168D01*
X155796300Y-68849853D01*
X155219559Y-68273112D01*
X155219558Y-68273112D01*
X155208400Y-68288472D01*
X155208397Y-68288476D01*
X155126386Y-68449433D01*
X155070559Y-68621249D01*
X155042300Y-68799668D01*
X132920121Y-68799668D01*
X132945406Y-68764866D01*
X132967811Y-68734028D01*
X132967814Y-68734023D01*
X132969962Y-68729809D01*
X133067895Y-68537606D01*
X133136015Y-68327951D01*
X133170500Y-68110222D01*
X133170500Y-67889778D01*
X133136015Y-67672049D01*
X133067895Y-67462394D01*
X133067895Y-67462393D01*
X133033237Y-67394375D01*
X132967815Y-67265978D01*
X132909501Y-67185715D01*
X132838247Y-67087641D01*
X132838243Y-67087636D01*
X132682363Y-66931756D01*
X132682358Y-66931752D01*
X132504025Y-66802187D01*
X132504024Y-66802186D01*
X132504022Y-66802185D01*
X132386791Y-66742452D01*
X132307606Y-66702104D01*
X132307603Y-66702103D01*
X132097952Y-66633985D01*
X131989086Y-66616742D01*
X131880222Y-66599500D01*
X131659778Y-66599500D01*
X131587201Y-66610995D01*
X131442047Y-66633985D01*
X131232396Y-66702103D01*
X131232393Y-66702104D01*
X131035974Y-66802187D01*
X130857641Y-66931752D01*
X130857636Y-66931756D01*
X130807463Y-66981929D01*
X130746140Y-67015413D01*
X130676448Y-67010428D01*
X130620515Y-66968557D01*
X130603601Y-66937580D01*
X130573797Y-66857671D01*
X130573793Y-66857664D01*
X130487547Y-66742455D01*
X130487544Y-66742452D01*
X130372335Y-66656206D01*
X130372328Y-66656202D01*
X130237482Y-66605908D01*
X130237483Y-66605908D01*
X130177883Y-66599501D01*
X130177881Y-66599500D01*
X130177873Y-66599500D01*
X130177864Y-66599500D01*
X128282129Y-66599500D01*
X128282123Y-66599501D01*
X128222516Y-66605908D01*
X128087671Y-66656202D01*
X128087664Y-66656206D01*
X127972455Y-66742452D01*
X127972452Y-66742455D01*
X127886206Y-66857664D01*
X127886202Y-66857671D01*
X127835908Y-66992517D01*
X127829501Y-67052116D01*
X127829500Y-67052135D01*
X127829500Y-68642128D01*
X127809815Y-68709167D01*
X127757011Y-68754922D01*
X127687853Y-68764866D01*
X127624297Y-68735841D01*
X127617819Y-68729809D01*
X124785658Y-65897648D01*
X140449500Y-65897648D01*
X140449500Y-66102351D01*
X140481522Y-66304534D01*
X140544781Y-66499223D01*
X140637715Y-66681613D01*
X140758028Y-66847213D01*
X140902786Y-66991971D01*
X141034467Y-67087641D01*
X141068390Y-67112287D01*
X141184607Y-67171503D01*
X141250776Y-67205218D01*
X141250778Y-67205218D01*
X141250781Y-67205220D01*
X141340459Y-67234358D01*
X141445465Y-67268477D01*
X141546557Y-67284488D01*
X141647648Y-67300500D01*
X141647649Y-67300500D01*
X141852351Y-67300500D01*
X141852352Y-67300500D01*
X142054534Y-67268477D01*
X142249219Y-67205220D01*
X142431610Y-67112287D01*
X142502323Y-67060911D01*
X142568128Y-67037432D01*
X142636181Y-67053257D01*
X142662888Y-67073549D01*
X142731654Y-67142315D01*
X142880875Y-67234356D01*
X142880880Y-67234358D01*
X143047302Y-67289505D01*
X143047309Y-67289506D01*
X143150019Y-67299999D01*
X143499999Y-67299999D01*
X143500000Y-67299998D01*
X143500000Y-66315686D01*
X143504394Y-66320080D01*
X143595606Y-66372741D01*
X143697339Y-66400000D01*
X143802661Y-66400000D01*
X143904394Y-66372741D01*
X143995606Y-66320080D01*
X144000000Y-66315686D01*
X144000000Y-67299999D01*
X144349972Y-67299999D01*
X144349986Y-67299998D01*
X144452697Y-67289505D01*
X144619119Y-67234358D01*
X144619124Y-67234356D01*
X144768345Y-67142315D01*
X144892315Y-67018345D01*
X144984356Y-66869124D01*
X144984358Y-66869119D01*
X145039505Y-66702697D01*
X145039506Y-66702690D01*
X145049999Y-66599986D01*
X145050000Y-66599973D01*
X145050000Y-66259635D01*
X155041800Y-66259635D01*
X155041800Y-66440364D01*
X155067079Y-66599973D01*
X155070073Y-66618871D01*
X155125922Y-66790756D01*
X155197766Y-66931758D01*
X155207974Y-66951791D01*
X155314196Y-67097996D01*
X155442003Y-67225803D01*
X155544817Y-67300500D01*
X155588212Y-67332028D01*
X155749244Y-67414078D01*
X155921129Y-67469927D01*
X156099635Y-67498200D01*
X156280365Y-67498200D01*
X156458871Y-67469927D01*
X156630756Y-67414078D01*
X156791788Y-67332028D01*
X156882704Y-67265974D01*
X156937996Y-67225803D01*
X156937998Y-67225800D01*
X156938002Y-67225798D01*
X157065798Y-67098002D01*
X157065800Y-67097998D01*
X157065803Y-67097996D01*
X157129424Y-67010428D01*
X157172028Y-66951788D01*
X157254078Y-66790756D01*
X157309927Y-66618871D01*
X157338200Y-66440365D01*
X157338200Y-66259635D01*
X162661800Y-66259635D01*
X162661800Y-66440364D01*
X162687079Y-66599973D01*
X162690073Y-66618871D01*
X162745922Y-66790756D01*
X162817766Y-66931758D01*
X162827974Y-66951791D01*
X162934196Y-67097996D01*
X163062003Y-67225803D01*
X163164817Y-67300500D01*
X163208212Y-67332028D01*
X163369244Y-67414078D01*
X163541129Y-67469927D01*
X163719635Y-67498200D01*
X163900365Y-67498200D01*
X164078871Y-67469927D01*
X164250756Y-67414078D01*
X164411788Y-67332028D01*
X164502704Y-67265974D01*
X164557996Y-67225803D01*
X164557998Y-67225800D01*
X164558002Y-67225798D01*
X164685798Y-67098002D01*
X164685800Y-67097998D01*
X164685803Y-67097996D01*
X164749424Y-67010428D01*
X164792028Y-66951788D01*
X164874078Y-66790756D01*
X164929927Y-66618871D01*
X164958200Y-66440365D01*
X164958200Y-66259635D01*
X164929927Y-66081129D01*
X164874078Y-65909244D01*
X164792028Y-65748212D01*
X164785202Y-65738817D01*
X164685803Y-65602003D01*
X164557996Y-65474196D01*
X164411791Y-65367974D01*
X164411790Y-65367973D01*
X164411788Y-65367972D01*
X164250756Y-65285922D01*
X164078871Y-65230073D01*
X164078869Y-65230072D01*
X164078867Y-65230072D01*
X163965420Y-65212103D01*
X163900365Y-65201800D01*
X163719635Y-65201800D01*
X163705745Y-65204000D01*
X163541132Y-65230072D01*
X163369241Y-65285923D01*
X163208208Y-65367974D01*
X163062003Y-65474196D01*
X162934196Y-65602003D01*
X162827974Y-65748208D01*
X162745923Y-65909241D01*
X162690072Y-66081132D01*
X162661800Y-66259635D01*
X157338200Y-66259635D01*
X157309927Y-66081129D01*
X157254078Y-65909244D01*
X157172028Y-65748212D01*
X157165202Y-65738817D01*
X157065803Y-65602003D01*
X156937996Y-65474196D01*
X156791791Y-65367974D01*
X156791790Y-65367973D01*
X156791788Y-65367972D01*
X156630756Y-65285922D01*
X156458871Y-65230073D01*
X156458869Y-65230072D01*
X156458867Y-65230072D01*
X156345420Y-65212103D01*
X156280365Y-65201800D01*
X156099635Y-65201800D01*
X156085745Y-65204000D01*
X155921132Y-65230072D01*
X155749241Y-65285923D01*
X155588208Y-65367974D01*
X155442003Y-65474196D01*
X155314196Y-65602003D01*
X155207974Y-65748208D01*
X155125923Y-65909241D01*
X155070072Y-66081132D01*
X155041800Y-66259635D01*
X145050000Y-66259635D01*
X145050000Y-66250000D01*
X144065686Y-66250000D01*
X144070080Y-66245606D01*
X144122741Y-66154394D01*
X144150000Y-66052661D01*
X144150000Y-65947339D01*
X144122741Y-65845606D01*
X144070080Y-65754394D01*
X144065686Y-65750000D01*
X145049999Y-65750000D01*
X145049999Y-65400028D01*
X145049998Y-65400013D01*
X145039505Y-65297302D01*
X144984358Y-65130880D01*
X144984356Y-65130875D01*
X144892315Y-64981654D01*
X144768345Y-64857684D01*
X144619124Y-64765643D01*
X144619119Y-64765641D01*
X144452697Y-64710494D01*
X144452690Y-64710493D01*
X144349986Y-64700000D01*
X144000000Y-64700000D01*
X144000000Y-65684314D01*
X143995606Y-65679920D01*
X143904394Y-65627259D01*
X143802661Y-65600000D01*
X143697339Y-65600000D01*
X143595606Y-65627259D01*
X143504394Y-65679920D01*
X143500000Y-65684314D01*
X143500000Y-64700000D01*
X143150028Y-64700000D01*
X143150012Y-64700001D01*
X143047302Y-64710494D01*
X142880880Y-64765641D01*
X142880875Y-64765643D01*
X142731654Y-64857684D01*
X142662886Y-64926451D01*
X142601562Y-64959936D01*
X142531871Y-64954950D01*
X142502323Y-64939088D01*
X142431610Y-64887713D01*
X142404846Y-64874076D01*
X142249223Y-64794781D01*
X142054534Y-64731522D01*
X141879995Y-64703878D01*
X141852352Y-64699500D01*
X141647648Y-64699500D01*
X141623329Y-64703351D01*
X141445465Y-64731522D01*
X141250776Y-64794781D01*
X141068386Y-64887715D01*
X140902786Y-65008028D01*
X140758028Y-65152786D01*
X140637715Y-65318386D01*
X140544781Y-65500776D01*
X140481522Y-65695465D01*
X140449500Y-65897648D01*
X124785658Y-65897648D01*
X124748455Y-65860445D01*
X124746226Y-65858159D01*
X124235302Y-65320220D01*
X124231025Y-65315478D01*
X123749527Y-64753184D01*
X123745500Y-64748228D01*
X123716416Y-64710493D01*
X123293582Y-64161887D01*
X123289823Y-64156740D01*
X123289822Y-64156739D01*
X122868696Y-63547923D01*
X122865203Y-63542584D01*
X122864305Y-63541132D01*
X122475973Y-62912892D01*
X122472769Y-62907397D01*
X122116445Y-62258455D01*
X122113533Y-62252810D01*
X122113153Y-62252025D01*
X121791107Y-61586424D01*
X121788478Y-61580611D01*
X121770873Y-61538871D01*
X121500785Y-60898513D01*
X121498462Y-60892583D01*
X121491661Y-60873813D01*
X121246263Y-60196574D01*
X121244262Y-60190576D01*
X121028211Y-59482458D01*
X121026510Y-59476318D01*
X120847215Y-58758076D01*
X120845838Y-58751890D01*
X120703742Y-58025311D01*
X120702685Y-58019052D01*
X120598186Y-57286160D01*
X120597455Y-57279889D01*
X120574591Y-57026891D01*
X120588162Y-56958355D01*
X120636633Y-56908033D01*
X120704616Y-56891905D01*
X120714793Y-56893364D01*
X120714804Y-56893262D01*
X120731387Y-56895044D01*
X120782127Y-56900500D01*
X122677872Y-56900499D01*
X122737483Y-56894091D01*
X122872331Y-56843796D01*
X122987546Y-56757546D01*
X123073796Y-56642331D01*
X123073798Y-56642326D01*
X123103601Y-56562420D01*
X123145471Y-56506486D01*
X123210936Y-56482068D01*
X123279209Y-56496919D01*
X123307464Y-56518071D01*
X123357636Y-56568243D01*
X123357641Y-56568247D01*
X123443681Y-56630758D01*
X123535978Y-56697815D01*
X123656218Y-56759081D01*
X123732393Y-56797895D01*
X123732396Y-56797896D01*
X123782841Y-56814286D01*
X123942049Y-56866015D01*
X124159778Y-56900500D01*
X124159779Y-56900500D01*
X124380221Y-56900500D01*
X124380222Y-56900500D01*
X124597951Y-56866015D01*
X124807606Y-56797895D01*
X125004022Y-56697815D01*
X125182365Y-56568242D01*
X125338242Y-56412365D01*
X125467815Y-56234022D01*
X125567895Y-56037606D01*
X125636015Y-55827951D01*
X125670500Y-55610222D01*
X125670500Y-55389778D01*
X125636015Y-55172049D01*
X125583502Y-55010428D01*
X125567896Y-54962396D01*
X125567895Y-54962393D01*
X125514532Y-54857664D01*
X125467815Y-54765978D01*
X125450724Y-54742454D01*
X125416728Y-54695661D01*
X125367314Y-54627648D01*
X127894500Y-54627648D01*
X127894500Y-54832351D01*
X127926522Y-55034534D01*
X127989781Y-55229223D01*
X128082715Y-55411613D01*
X128203028Y-55577213D01*
X128347786Y-55721971D01*
X128493658Y-55827951D01*
X128513390Y-55842287D01*
X128604840Y-55888883D01*
X128606080Y-55889515D01*
X128656876Y-55937490D01*
X128673671Y-56005311D01*
X128651134Y-56071446D01*
X128606080Y-56110485D01*
X128513386Y-56157715D01*
X128347786Y-56278028D01*
X128203028Y-56422786D01*
X128082715Y-56588386D01*
X127989781Y-56770776D01*
X127926522Y-56965465D01*
X127894500Y-57167648D01*
X127894500Y-57372351D01*
X127926522Y-57574534D01*
X127989781Y-57769223D01*
X128030926Y-57849973D01*
X128072522Y-57931610D01*
X128082715Y-57951613D01*
X128203028Y-58117213D01*
X128347786Y-58261971D01*
X128485858Y-58362284D01*
X128513390Y-58382287D01*
X128604840Y-58428883D01*
X128606080Y-58429515D01*
X128656876Y-58477490D01*
X128673671Y-58545311D01*
X128651134Y-58611446D01*
X128606080Y-58650485D01*
X128513386Y-58697715D01*
X128347786Y-58818028D01*
X128203028Y-58962786D01*
X128082715Y-59128386D01*
X127989781Y-59310776D01*
X127926522Y-59505465D01*
X127894500Y-59707648D01*
X127894500Y-59912351D01*
X127926522Y-60114534D01*
X127989781Y-60309223D01*
X128082715Y-60491613D01*
X128203028Y-60657213D01*
X128347786Y-60801971D01*
X128484787Y-60901506D01*
X128513390Y-60922287D01*
X128598917Y-60965865D01*
X128695776Y-61015218D01*
X128695778Y-61015218D01*
X128695781Y-61015220D01*
X128800137Y-61049127D01*
X128890465Y-61078477D01*
X128991557Y-61094488D01*
X129092648Y-61110500D01*
X129092649Y-61110500D01*
X129297351Y-61110500D01*
X129297352Y-61110500D01*
X129499534Y-61078477D01*
X129694219Y-61015220D01*
X129876610Y-60922287D01*
X129988380Y-60841082D01*
X130042213Y-60801971D01*
X130042215Y-60801968D01*
X130042219Y-60801966D01*
X130186966Y-60657219D01*
X130186968Y-60657215D01*
X130186971Y-60657213D01*
X130285205Y-60522003D01*
X130307287Y-60491610D01*
X130400220Y-60309219D01*
X130463477Y-60114534D01*
X130495500Y-59912352D01*
X130495500Y-59707648D01*
X130463477Y-59505466D01*
X130458825Y-59491151D01*
X130456832Y-59421312D01*
X130489075Y-59365158D01*
X135302819Y-54551415D01*
X135364142Y-54517930D01*
X135433834Y-54522914D01*
X135489767Y-54564786D01*
X135514184Y-54630250D01*
X135514500Y-54639096D01*
X135514500Y-54832351D01*
X135546522Y-55034534D01*
X135609781Y-55229223D01*
X135702715Y-55411613D01*
X135823028Y-55577213D01*
X135967786Y-55721971D01*
X136113658Y-55827951D01*
X136133390Y-55842287D01*
X136224840Y-55888883D01*
X136226080Y-55889515D01*
X136276876Y-55937490D01*
X136293671Y-56005311D01*
X136271134Y-56071446D01*
X136226080Y-56110485D01*
X136133386Y-56157715D01*
X135967786Y-56278028D01*
X135823028Y-56422786D01*
X135702715Y-56588386D01*
X135609781Y-56770776D01*
X135546522Y-56965465D01*
X135514500Y-57167648D01*
X135514500Y-57372351D01*
X135546522Y-57574534D01*
X135609781Y-57769223D01*
X135650926Y-57849973D01*
X135692522Y-57931610D01*
X135702715Y-57951613D01*
X135823028Y-58117213D01*
X135967786Y-58261971D01*
X136105858Y-58362284D01*
X136133390Y-58382287D01*
X136224840Y-58428883D01*
X136226080Y-58429515D01*
X136276876Y-58477490D01*
X136293671Y-58545311D01*
X136271134Y-58611446D01*
X136226080Y-58650485D01*
X136133386Y-58697715D01*
X135967786Y-58818028D01*
X135823028Y-58962786D01*
X135702715Y-59128386D01*
X135609781Y-59310776D01*
X135546522Y-59505465D01*
X135514500Y-59707648D01*
X135514500Y-59912351D01*
X135546522Y-60114534D01*
X135609781Y-60309223D01*
X135702715Y-60491613D01*
X135823028Y-60657213D01*
X135967786Y-60801971D01*
X136104787Y-60901506D01*
X136133390Y-60922287D01*
X136218917Y-60965865D01*
X136315776Y-61015218D01*
X136315778Y-61015218D01*
X136315781Y-61015220D01*
X136420137Y-61049127D01*
X136510465Y-61078477D01*
X136611557Y-61094488D01*
X136712648Y-61110500D01*
X136712649Y-61110500D01*
X136917351Y-61110500D01*
X136917352Y-61110500D01*
X137119534Y-61078477D01*
X137314219Y-61015220D01*
X137496610Y-60922287D01*
X137608380Y-60841082D01*
X137662213Y-60801971D01*
X137662215Y-60801968D01*
X137662219Y-60801966D01*
X137806966Y-60657219D01*
X137806968Y-60657215D01*
X137806971Y-60657213D01*
X137905205Y-60522003D01*
X137927287Y-60491610D01*
X138020220Y-60309219D01*
X138083477Y-60114534D01*
X138115500Y-59912352D01*
X138115500Y-59707648D01*
X138100659Y-59613945D01*
X148779500Y-59613945D01*
X148779500Y-59806054D01*
X148809553Y-59995802D01*
X148868916Y-60178506D01*
X148935518Y-60309219D01*
X148956135Y-60349681D01*
X149069055Y-60505102D01*
X149204898Y-60640945D01*
X149360319Y-60753865D01*
X149372203Y-60759920D01*
X149531493Y-60841083D01*
X149596081Y-60862069D01*
X149653756Y-60901506D01*
X149680955Y-60965865D01*
X149669041Y-61034711D01*
X149621797Y-61086187D01*
X149596081Y-61097931D01*
X149531493Y-61118916D01*
X149360318Y-61206135D01*
X149271645Y-61270560D01*
X149204898Y-61319055D01*
X149204896Y-61319057D01*
X149204895Y-61319057D01*
X149069057Y-61454895D01*
X149069057Y-61454896D01*
X149069055Y-61454898D01*
X149020560Y-61521645D01*
X148956135Y-61610318D01*
X148868916Y-61781493D01*
X148809553Y-61964197D01*
X148801031Y-62018002D01*
X148779500Y-62153945D01*
X148779500Y-62346055D01*
X148784876Y-62380000D01*
X148809553Y-62535802D01*
X148868916Y-62718506D01*
X148956135Y-62889681D01*
X149069055Y-63045102D01*
X149204898Y-63180945D01*
X149360319Y-63293865D01*
X149508252Y-63369241D01*
X149531493Y-63381083D01*
X149596081Y-63402069D01*
X149653756Y-63441506D01*
X149680955Y-63505865D01*
X149669041Y-63574711D01*
X149621797Y-63626187D01*
X149596081Y-63637931D01*
X149531493Y-63658916D01*
X149360318Y-63746135D01*
X149271645Y-63810560D01*
X149204898Y-63859055D01*
X149204896Y-63859057D01*
X149204895Y-63859057D01*
X149069057Y-63994895D01*
X149069057Y-63994896D01*
X149069055Y-63994898D01*
X149020560Y-64061645D01*
X148956135Y-64150318D01*
X148868916Y-64321493D01*
X148809553Y-64504197D01*
X148809553Y-64504199D01*
X148779500Y-64693945D01*
X148779500Y-64886055D01*
X148790412Y-64954950D01*
X148809553Y-65075802D01*
X148868916Y-65258506D01*
X148941018Y-65400013D01*
X148956135Y-65429681D01*
X149069055Y-65585102D01*
X149204898Y-65720945D01*
X149360319Y-65833865D01*
X149508252Y-65909241D01*
X149531493Y-65921083D01*
X149612302Y-65947339D01*
X149714199Y-65980447D01*
X149903945Y-66010500D01*
X149903946Y-66010500D01*
X150096054Y-66010500D01*
X150096055Y-66010500D01*
X150285801Y-65980447D01*
X150468509Y-65921082D01*
X150639681Y-65833865D01*
X150795102Y-65720945D01*
X150930945Y-65585102D01*
X151043865Y-65429681D01*
X151131082Y-65258509D01*
X151190447Y-65075801D01*
X151220500Y-64886055D01*
X151220500Y-64693945D01*
X151190447Y-64504199D01*
X151131082Y-64321491D01*
X151043865Y-64150319D01*
X150930945Y-63994898D01*
X150795102Y-63859055D01*
X150639681Y-63746135D01*
X150587672Y-63719635D01*
X155041800Y-63719635D01*
X155041800Y-63900365D01*
X155070073Y-64078871D01*
X155125922Y-64250756D01*
X155161964Y-64321493D01*
X155207974Y-64411791D01*
X155314196Y-64557996D01*
X155442003Y-64685803D01*
X155531415Y-64750763D01*
X155588212Y-64792028D01*
X155749244Y-64874078D01*
X155921129Y-64929927D01*
X156099635Y-64958200D01*
X156280365Y-64958200D01*
X156458871Y-64929927D01*
X156630756Y-64874078D01*
X156791788Y-64792028D01*
X156904012Y-64710493D01*
X156937996Y-64685803D01*
X156937998Y-64685800D01*
X156938002Y-64685798D01*
X157065798Y-64558002D01*
X157065800Y-64557998D01*
X157065803Y-64557996D01*
X157112385Y-64493879D01*
X157172028Y-64411788D01*
X157254078Y-64250756D01*
X157309927Y-64078871D01*
X157338200Y-63900365D01*
X157338200Y-63719635D01*
X162661800Y-63719635D01*
X162661800Y-63900365D01*
X162690073Y-64078871D01*
X162745922Y-64250756D01*
X162781964Y-64321493D01*
X162827974Y-64411791D01*
X162934196Y-64557996D01*
X163062003Y-64685803D01*
X163151415Y-64750763D01*
X163208212Y-64792028D01*
X163369244Y-64874078D01*
X163541129Y-64929927D01*
X163719635Y-64958200D01*
X163900365Y-64958200D01*
X164078871Y-64929927D01*
X164250756Y-64874078D01*
X164411788Y-64792028D01*
X164524012Y-64710493D01*
X164557996Y-64685803D01*
X164557998Y-64685800D01*
X164558002Y-64685798D01*
X164685798Y-64558002D01*
X164685800Y-64557998D01*
X164685803Y-64557996D01*
X164732385Y-64493879D01*
X164792028Y-64411788D01*
X164874078Y-64250756D01*
X164929927Y-64078871D01*
X164958200Y-63900365D01*
X164958200Y-63719635D01*
X164929927Y-63541129D01*
X164874078Y-63369244D01*
X164792028Y-63208212D01*
X164779712Y-63191260D01*
X164685803Y-63062003D01*
X164557996Y-62934196D01*
X164411791Y-62827974D01*
X164411790Y-62827973D01*
X164411788Y-62827972D01*
X164250756Y-62745922D01*
X164078871Y-62690073D01*
X164078869Y-62690072D01*
X164078867Y-62690072D01*
X163965420Y-62672103D01*
X163900365Y-62661800D01*
X163719635Y-62661800D01*
X163705745Y-62664000D01*
X163541132Y-62690072D01*
X163369241Y-62745923D01*
X163208208Y-62827974D01*
X163062003Y-62934196D01*
X162934196Y-63062003D01*
X162827974Y-63208208D01*
X162745923Y-63369241D01*
X162690072Y-63541132D01*
X162689412Y-63545300D01*
X162661800Y-63719635D01*
X157338200Y-63719635D01*
X157309927Y-63541129D01*
X157254078Y-63369244D01*
X157172028Y-63208212D01*
X157159712Y-63191260D01*
X157065803Y-63062003D01*
X156937996Y-62934196D01*
X156791791Y-62827974D01*
X156791790Y-62827973D01*
X156791788Y-62827972D01*
X156630756Y-62745922D01*
X156458871Y-62690073D01*
X156458869Y-62690072D01*
X156458867Y-62690072D01*
X156345420Y-62672103D01*
X156280365Y-62661800D01*
X156099635Y-62661800D01*
X156085745Y-62664000D01*
X155921132Y-62690072D01*
X155749241Y-62745923D01*
X155588208Y-62827974D01*
X155442003Y-62934196D01*
X155314196Y-63062003D01*
X155207974Y-63208208D01*
X155125923Y-63369241D01*
X155070072Y-63541132D01*
X155069412Y-63545300D01*
X155041800Y-63719635D01*
X150587672Y-63719635D01*
X150468504Y-63658915D01*
X150403919Y-63637931D01*
X150346243Y-63598494D01*
X150319044Y-63534136D01*
X150330958Y-63465289D01*
X150378202Y-63413813D01*
X150403919Y-63402069D01*
X150468504Y-63381084D01*
X150468506Y-63381082D01*
X150468509Y-63381082D01*
X150639681Y-63293865D01*
X150795102Y-63180945D01*
X150930945Y-63045102D01*
X151043865Y-62889681D01*
X151131082Y-62718509D01*
X151190447Y-62535801D01*
X151220500Y-62346055D01*
X151220500Y-62153945D01*
X151190447Y-61964199D01*
X151131082Y-61781491D01*
X151043865Y-61610319D01*
X150930945Y-61454898D01*
X150795102Y-61319055D01*
X150639681Y-61206135D01*
X150587672Y-61179635D01*
X155041800Y-61179635D01*
X155041800Y-61360364D01*
X155060748Y-61480000D01*
X155070073Y-61538871D01*
X155125922Y-61710756D01*
X155161964Y-61781493D01*
X155207974Y-61871791D01*
X155314196Y-62017996D01*
X155442003Y-62145803D01*
X155578817Y-62245202D01*
X155588212Y-62252028D01*
X155749244Y-62334078D01*
X155921129Y-62389927D01*
X156099635Y-62418200D01*
X156280365Y-62418200D01*
X156458871Y-62389927D01*
X156630756Y-62334078D01*
X156791788Y-62252028D01*
X156874604Y-62191859D01*
X156937996Y-62145803D01*
X156937998Y-62145800D01*
X156938002Y-62145798D01*
X157065798Y-62018002D01*
X157065800Y-62017998D01*
X157065803Y-62017996D01*
X157112385Y-61953879D01*
X157172028Y-61871788D01*
X157254078Y-61710756D01*
X157309927Y-61538871D01*
X157338200Y-61360365D01*
X157338200Y-61179635D01*
X162661800Y-61179635D01*
X162661800Y-61360364D01*
X162680748Y-61480000D01*
X162690073Y-61538871D01*
X162745922Y-61710756D01*
X162781964Y-61781493D01*
X162827974Y-61871791D01*
X162934196Y-62017996D01*
X163062003Y-62145803D01*
X163198817Y-62245202D01*
X163208212Y-62252028D01*
X163369244Y-62334078D01*
X163541129Y-62389927D01*
X163719635Y-62418200D01*
X163900365Y-62418200D01*
X164078871Y-62389927D01*
X164250756Y-62334078D01*
X164411788Y-62252028D01*
X164494604Y-62191859D01*
X164557996Y-62145803D01*
X164557998Y-62145800D01*
X164558002Y-62145798D01*
X164685798Y-62018002D01*
X164685800Y-62017998D01*
X164685803Y-62017996D01*
X164732385Y-61953879D01*
X164792028Y-61871788D01*
X164874078Y-61710756D01*
X164929927Y-61538871D01*
X164958200Y-61360365D01*
X164958200Y-61179635D01*
X164929927Y-61001129D01*
X164922309Y-60977682D01*
X168200000Y-60977682D01*
X168200000Y-61182317D01*
X168232009Y-61384417D01*
X168295244Y-61579031D01*
X168388141Y-61761350D01*
X168388147Y-61761359D01*
X168420523Y-61805921D01*
X168420524Y-61805922D01*
X169100000Y-61126446D01*
X169100000Y-61132661D01*
X169127259Y-61234394D01*
X169179920Y-61325606D01*
X169254394Y-61400080D01*
X169345606Y-61452741D01*
X169447339Y-61480000D01*
X169453553Y-61480000D01*
X168774076Y-62159474D01*
X168818650Y-62191859D01*
X169000968Y-62284755D01*
X169195582Y-62347990D01*
X169397683Y-62380000D01*
X169602317Y-62380000D01*
X169804417Y-62347990D01*
X169999031Y-62284755D01*
X170181349Y-62191859D01*
X170225921Y-62159474D01*
X169546447Y-61480000D01*
X169552661Y-61480000D01*
X169654394Y-61452741D01*
X169745606Y-61400080D01*
X169820080Y-61325606D01*
X169872741Y-61234394D01*
X169900000Y-61132661D01*
X169900000Y-61126448D01*
X170579474Y-61805922D01*
X170579474Y-61805921D01*
X170611859Y-61761349D01*
X170704755Y-61579031D01*
X170767990Y-61384417D01*
X170800000Y-61182317D01*
X170800000Y-60977682D01*
X170767990Y-60775582D01*
X170704755Y-60580968D01*
X170611859Y-60398650D01*
X170579474Y-60354077D01*
X170579474Y-60354076D01*
X169900000Y-61033551D01*
X169900000Y-61027339D01*
X169872741Y-60925606D01*
X169820080Y-60834394D01*
X169745606Y-60759920D01*
X169654394Y-60707259D01*
X169552661Y-60680000D01*
X169546446Y-60680000D01*
X170225922Y-60000524D01*
X170225921Y-60000523D01*
X170181359Y-59968147D01*
X170181350Y-59968141D01*
X169999031Y-59875244D01*
X169804417Y-59812009D01*
X169602317Y-59780000D01*
X169397683Y-59780000D01*
X169195582Y-59812009D01*
X169000968Y-59875244D01*
X168818644Y-59968143D01*
X168774077Y-60000523D01*
X168774077Y-60000524D01*
X169453554Y-60680000D01*
X169447339Y-60680000D01*
X169345606Y-60707259D01*
X169254394Y-60759920D01*
X169179920Y-60834394D01*
X169127259Y-60925606D01*
X169100000Y-61027339D01*
X169100000Y-61033553D01*
X168420524Y-60354077D01*
X168420523Y-60354077D01*
X168388143Y-60398644D01*
X168295244Y-60580968D01*
X168232009Y-60775582D01*
X168200000Y-60977682D01*
X164922309Y-60977682D01*
X164874078Y-60829244D01*
X164792028Y-60668212D01*
X164784037Y-60657213D01*
X164685803Y-60522003D01*
X164557996Y-60394196D01*
X164411791Y-60287974D01*
X164411790Y-60287973D01*
X164411788Y-60287972D01*
X164250756Y-60205922D01*
X164078871Y-60150073D01*
X163900687Y-60121851D01*
X163898361Y-60121391D01*
X163869407Y-60106287D01*
X163839883Y-60092291D01*
X163838586Y-60090208D01*
X163836413Y-60089075D01*
X163820216Y-60060706D01*
X163810385Y-60044918D01*
X163777439Y-60094610D01*
X163716981Y-60122220D01*
X163541132Y-60150072D01*
X163369241Y-60205923D01*
X163208208Y-60287974D01*
X163062003Y-60394196D01*
X162934196Y-60522003D01*
X162827974Y-60668208D01*
X162745923Y-60829241D01*
X162690072Y-61001132D01*
X162661800Y-61179635D01*
X157338200Y-61179635D01*
X157309927Y-61001129D01*
X157254078Y-60829244D01*
X157172028Y-60668212D01*
X157164037Y-60657213D01*
X157065803Y-60522003D01*
X156937996Y-60394196D01*
X156791791Y-60287974D01*
X156791790Y-60287973D01*
X156791788Y-60287972D01*
X156630756Y-60205922D01*
X156458871Y-60150073D01*
X156458869Y-60150072D01*
X156458867Y-60150072D01*
X156345420Y-60132103D01*
X156280365Y-60121800D01*
X156099635Y-60121800D01*
X156085745Y-60124000D01*
X155921132Y-60150072D01*
X155749241Y-60205923D01*
X155588208Y-60287974D01*
X155442003Y-60394196D01*
X155314196Y-60522003D01*
X155207974Y-60668208D01*
X155125923Y-60829241D01*
X155070072Y-61001132D01*
X155041800Y-61179635D01*
X150587672Y-61179635D01*
X150468504Y-61118915D01*
X150403919Y-61097931D01*
X150346243Y-61058494D01*
X150319044Y-60994136D01*
X150330958Y-60925289D01*
X150378202Y-60873813D01*
X150403919Y-60862069D01*
X150468504Y-60841084D01*
X150468506Y-60841082D01*
X150468509Y-60841082D01*
X150639681Y-60753865D01*
X150795102Y-60640945D01*
X150930945Y-60505102D01*
X151043865Y-60349681D01*
X151131082Y-60178509D01*
X151190447Y-59995801D01*
X151220500Y-59806055D01*
X151220500Y-59613945D01*
X151190447Y-59424199D01*
X151131082Y-59241491D01*
X151043865Y-59070319D01*
X150930945Y-58914898D01*
X150795102Y-58779055D01*
X150639681Y-58666135D01*
X150587672Y-58639635D01*
X155041800Y-58639635D01*
X155041800Y-58820364D01*
X155070053Y-58998750D01*
X155070073Y-58998871D01*
X155125922Y-59170756D01*
X155207840Y-59331529D01*
X155207974Y-59331791D01*
X155314196Y-59477996D01*
X155442003Y-59605803D01*
X155572260Y-59700438D01*
X155588212Y-59712028D01*
X155749244Y-59794078D01*
X155921129Y-59849927D01*
X156099635Y-59878200D01*
X156280365Y-59878200D01*
X156458871Y-59849927D01*
X156630756Y-59794078D01*
X156791788Y-59712028D01*
X156906794Y-59628472D01*
X156937996Y-59605803D01*
X156937998Y-59605800D01*
X156938002Y-59605798D01*
X157065798Y-59478002D01*
X157065800Y-59477998D01*
X157065803Y-59477996D01*
X157112385Y-59413879D01*
X157172028Y-59331788D01*
X157254078Y-59170756D01*
X157309927Y-58998871D01*
X157338200Y-58820365D01*
X157338200Y-58639668D01*
X162662300Y-58639668D01*
X162662300Y-58820331D01*
X162690559Y-58998750D01*
X162746386Y-59170566D01*
X162828401Y-59331529D01*
X162839558Y-59346886D01*
X162839559Y-59346886D01*
X163416300Y-58770145D01*
X163416300Y-58781832D01*
X163443130Y-58881962D01*
X163494962Y-58971737D01*
X163568263Y-59045038D01*
X163658038Y-59096870D01*
X163758168Y-59123700D01*
X163769853Y-59123700D01*
X163193112Y-59700438D01*
X163193112Y-59700439D01*
X163208477Y-59711602D01*
X163369433Y-59793613D01*
X163541249Y-59849440D01*
X163716981Y-59877274D01*
X163780116Y-59907203D01*
X163809025Y-59953631D01*
X163824510Y-59932106D01*
X163842560Y-59904884D01*
X163844845Y-59903840D01*
X163846236Y-59901907D01*
X163867194Y-59893633D01*
X163903018Y-59877274D01*
X164078750Y-59849440D01*
X164250566Y-59793613D01*
X164411528Y-59711599D01*
X164411532Y-59711597D01*
X164426886Y-59700440D01*
X164426887Y-59700439D01*
X163850148Y-59123700D01*
X163861832Y-59123700D01*
X163961962Y-59096870D01*
X164051737Y-59045038D01*
X164125038Y-58971737D01*
X164176870Y-58881962D01*
X164203700Y-58781832D01*
X164203700Y-58770147D01*
X164780440Y-59346887D01*
X164780440Y-59346886D01*
X164791597Y-59331532D01*
X164791599Y-59331528D01*
X164873613Y-59170566D01*
X164929440Y-58998750D01*
X164957700Y-58820331D01*
X164957700Y-58639668D01*
X164929440Y-58461249D01*
X164873613Y-58289433D01*
X164791602Y-58128477D01*
X164780439Y-58113112D01*
X164780438Y-58113112D01*
X164203700Y-58689851D01*
X164203700Y-58678168D01*
X164176870Y-58578038D01*
X164125038Y-58488263D01*
X164051737Y-58414962D01*
X163961962Y-58363130D01*
X163861832Y-58336300D01*
X163850147Y-58336300D01*
X164426886Y-57759559D01*
X164426886Y-57759558D01*
X164411529Y-57748401D01*
X164250566Y-57666386D01*
X164078750Y-57610559D01*
X164078752Y-57610559D01*
X163912658Y-57584252D01*
X163707341Y-57584252D01*
X163541248Y-57610559D01*
X163369433Y-57666386D01*
X163208476Y-57748397D01*
X163208472Y-57748400D01*
X163193112Y-57759558D01*
X163193112Y-57759559D01*
X163769854Y-58336300D01*
X163758168Y-58336300D01*
X163658038Y-58363130D01*
X163568263Y-58414962D01*
X163494962Y-58488263D01*
X163443130Y-58578038D01*
X163416300Y-58678168D01*
X163416300Y-58689853D01*
X162839559Y-58113112D01*
X162839558Y-58113112D01*
X162828400Y-58128472D01*
X162828397Y-58128476D01*
X162746386Y-58289433D01*
X162690559Y-58461249D01*
X162662300Y-58639668D01*
X157338200Y-58639668D01*
X157338200Y-58639635D01*
X157309927Y-58461129D01*
X157254078Y-58289244D01*
X157172028Y-58128212D01*
X157157710Y-58108505D01*
X157065803Y-57982003D01*
X156937996Y-57854196D01*
X156791791Y-57747974D01*
X156791790Y-57747973D01*
X156791788Y-57747972D01*
X156630756Y-57665922D01*
X156458871Y-57610073D01*
X156458869Y-57610072D01*
X156458867Y-57610072D01*
X156345420Y-57592103D01*
X156280365Y-57581800D01*
X156099635Y-57581800D01*
X156085745Y-57584000D01*
X155921132Y-57610072D01*
X155749241Y-57665923D01*
X155588208Y-57747974D01*
X155442003Y-57854196D01*
X155314196Y-57982003D01*
X155207974Y-58128208D01*
X155125923Y-58289241D01*
X155070072Y-58461132D01*
X155041800Y-58639635D01*
X150587672Y-58639635D01*
X150468506Y-58578916D01*
X150285802Y-58519553D01*
X150190928Y-58504526D01*
X150096055Y-58489500D01*
X149903945Y-58489500D01*
X149840696Y-58499517D01*
X149714197Y-58519553D01*
X149531493Y-58578916D01*
X149360318Y-58666135D01*
X149272418Y-58729999D01*
X149204898Y-58779055D01*
X149204896Y-58779057D01*
X149204895Y-58779057D01*
X149069057Y-58914895D01*
X149069057Y-58914896D01*
X149069055Y-58914898D01*
X149034266Y-58962781D01*
X148956135Y-59070318D01*
X148868916Y-59241493D01*
X148809553Y-59424197D01*
X148779500Y-59613945D01*
X138100659Y-59613945D01*
X138083477Y-59505466D01*
X138020220Y-59310781D01*
X138020218Y-59310778D01*
X138020218Y-59310776D01*
X137984915Y-59241491D01*
X137927287Y-59128390D01*
X137904387Y-59096870D01*
X137806971Y-58962786D01*
X137662213Y-58818028D01*
X137496614Y-58697715D01*
X137490006Y-58694348D01*
X137403917Y-58650483D01*
X137353123Y-58602511D01*
X137336328Y-58534690D01*
X137358865Y-58468555D01*
X137403917Y-58429516D01*
X137496610Y-58382287D01*
X137577457Y-58323549D01*
X137662213Y-58261971D01*
X137662215Y-58261968D01*
X137662219Y-58261966D01*
X137806966Y-58117219D01*
X137806968Y-58117215D01*
X137806971Y-58117213D01*
X137859732Y-58044590D01*
X137927287Y-57951610D01*
X138020220Y-57769219D01*
X138083477Y-57574534D01*
X138115500Y-57372352D01*
X138115500Y-57167648D01*
X138112332Y-57147648D01*
X140449500Y-57147648D01*
X140449500Y-57352351D01*
X140481522Y-57554534D01*
X140544781Y-57749223D01*
X140637715Y-57931613D01*
X140758028Y-58097213D01*
X140902786Y-58241971D01*
X141057749Y-58354556D01*
X141068390Y-58362287D01*
X141184607Y-58421503D01*
X141250776Y-58455218D01*
X141250778Y-58455218D01*
X141250781Y-58455220D01*
X141340459Y-58484358D01*
X141445465Y-58518477D01*
X141452259Y-58519553D01*
X141647648Y-58550500D01*
X141647649Y-58550500D01*
X141852351Y-58550500D01*
X141852352Y-58550500D01*
X142054534Y-58518477D01*
X142249219Y-58455220D01*
X142431610Y-58362287D01*
X142502323Y-58310911D01*
X142568128Y-58287432D01*
X142636181Y-58303257D01*
X142662888Y-58323549D01*
X142731654Y-58392315D01*
X142880875Y-58484356D01*
X142880880Y-58484358D01*
X143047302Y-58539505D01*
X143047309Y-58539506D01*
X143150019Y-58549999D01*
X143499999Y-58549999D01*
X143500000Y-58549998D01*
X143500000Y-57565686D01*
X143504394Y-57570080D01*
X143595606Y-57622741D01*
X143697339Y-57650000D01*
X143802661Y-57650000D01*
X143904394Y-57622741D01*
X143995606Y-57570080D01*
X144000000Y-57565686D01*
X144000000Y-58549999D01*
X144349972Y-58549999D01*
X144349986Y-58549998D01*
X144452697Y-58539505D01*
X144619119Y-58484358D01*
X144619124Y-58484356D01*
X144768345Y-58392315D01*
X144892315Y-58268345D01*
X144984356Y-58119124D01*
X144984358Y-58119119D01*
X145039505Y-57952697D01*
X145039506Y-57952690D01*
X145049999Y-57849986D01*
X145050000Y-57849973D01*
X145050000Y-57500000D01*
X144065686Y-57500000D01*
X144070080Y-57495606D01*
X144122741Y-57404394D01*
X144150000Y-57302661D01*
X144150000Y-57197339D01*
X144122741Y-57095606D01*
X144070080Y-57004394D01*
X144065686Y-57000000D01*
X145049999Y-57000000D01*
X145049999Y-56650028D01*
X145049998Y-56650013D01*
X145039505Y-56547302D01*
X144984358Y-56380880D01*
X144984356Y-56380875D01*
X144892315Y-56231654D01*
X144768345Y-56107684D01*
X144755296Y-56099635D01*
X155041800Y-56099635D01*
X155041800Y-56280364D01*
X155064357Y-56422786D01*
X155070073Y-56458871D01*
X155125922Y-56630756D01*
X155197268Y-56770781D01*
X155207974Y-56791791D01*
X155314196Y-56937996D01*
X155442003Y-57065803D01*
X155574642Y-57162169D01*
X155588212Y-57172028D01*
X155749244Y-57254078D01*
X155921129Y-57309927D01*
X156099635Y-57338200D01*
X156280365Y-57338200D01*
X156458871Y-57309927D01*
X156630756Y-57254078D01*
X156791788Y-57172028D01*
X156896975Y-57095606D01*
X156937996Y-57065803D01*
X156937998Y-57065800D01*
X156938002Y-57065798D01*
X157065798Y-56938002D01*
X157065800Y-56937998D01*
X157065803Y-56937996D01*
X157134244Y-56843793D01*
X157172028Y-56791788D01*
X157254078Y-56630756D01*
X157309927Y-56458871D01*
X157338200Y-56280365D01*
X157338200Y-56099635D01*
X162661800Y-56099635D01*
X162661800Y-56280364D01*
X162684357Y-56422786D01*
X162690073Y-56458871D01*
X162745922Y-56630756D01*
X162817268Y-56770781D01*
X162827974Y-56791791D01*
X162934196Y-56937996D01*
X163062003Y-57065803D01*
X163194642Y-57162169D01*
X163208212Y-57172028D01*
X163369244Y-57254078D01*
X163541129Y-57309927D01*
X163719635Y-57338200D01*
X163900365Y-57338200D01*
X164078871Y-57309927D01*
X164250756Y-57254078D01*
X164411788Y-57172028D01*
X164516975Y-57095606D01*
X164557996Y-57065803D01*
X164557998Y-57065800D01*
X164558002Y-57065798D01*
X164685798Y-56938002D01*
X164685800Y-56937998D01*
X164685803Y-56937996D01*
X164754244Y-56843793D01*
X164792028Y-56791788D01*
X164874078Y-56630756D01*
X164929927Y-56458871D01*
X164958200Y-56280365D01*
X164958200Y-56099635D01*
X164929927Y-55921129D01*
X164874078Y-55749244D01*
X164792028Y-55588212D01*
X164784037Y-55577213D01*
X164685803Y-55442003D01*
X164557996Y-55314196D01*
X164411791Y-55207974D01*
X164411790Y-55207973D01*
X164411788Y-55207972D01*
X164250756Y-55125922D01*
X164078871Y-55070073D01*
X164078869Y-55070072D01*
X164078867Y-55070072D01*
X163912659Y-55043747D01*
X163912658Y-55043747D01*
X163900365Y-55041800D01*
X163719635Y-55041800D01*
X163707342Y-55043747D01*
X163707340Y-55043747D01*
X163541132Y-55070072D01*
X163369241Y-55125923D01*
X163208208Y-55207974D01*
X163062003Y-55314196D01*
X162934196Y-55442003D01*
X162827974Y-55588208D01*
X162745923Y-55749241D01*
X162690072Y-55921132D01*
X162661800Y-56099635D01*
X157338200Y-56099635D01*
X157309927Y-55921129D01*
X157254078Y-55749244D01*
X157172028Y-55588212D01*
X157164037Y-55577213D01*
X157065803Y-55442003D01*
X156937996Y-55314196D01*
X156791791Y-55207974D01*
X156791790Y-55207973D01*
X156791788Y-55207972D01*
X156630756Y-55125922D01*
X156458871Y-55070073D01*
X156458869Y-55070072D01*
X156458867Y-55070072D01*
X156345420Y-55052103D01*
X156280365Y-55041800D01*
X156099635Y-55041800D01*
X156085745Y-55044000D01*
X155921132Y-55070072D01*
X155749241Y-55125923D01*
X155588208Y-55207974D01*
X155442003Y-55314196D01*
X155314196Y-55442003D01*
X155207974Y-55588208D01*
X155125923Y-55749241D01*
X155070072Y-55921132D01*
X155041800Y-56099635D01*
X144755296Y-56099635D01*
X144619124Y-56015643D01*
X144619119Y-56015641D01*
X144452697Y-55960494D01*
X144452690Y-55960493D01*
X144349986Y-55950000D01*
X144000000Y-55950000D01*
X144000000Y-56934314D01*
X143995606Y-56929920D01*
X143904394Y-56877259D01*
X143802661Y-56850000D01*
X143697339Y-56850000D01*
X143595606Y-56877259D01*
X143504394Y-56929920D01*
X143500000Y-56934314D01*
X143500000Y-55950000D01*
X143150028Y-55950000D01*
X143150012Y-55950001D01*
X143047302Y-55960494D01*
X142880880Y-56015641D01*
X142880875Y-56015643D01*
X142731654Y-56107684D01*
X142662886Y-56176451D01*
X142601562Y-56209936D01*
X142531871Y-56204950D01*
X142502323Y-56189088D01*
X142431610Y-56137713D01*
X142249223Y-56044781D01*
X142054534Y-55981522D01*
X141879995Y-55953878D01*
X141852352Y-55949500D01*
X141647648Y-55949500D01*
X141623329Y-55953351D01*
X141445465Y-55981522D01*
X141250776Y-56044781D01*
X141068386Y-56137715D01*
X140902786Y-56258028D01*
X140758028Y-56402786D01*
X140637715Y-56568386D01*
X140544781Y-56750776D01*
X140481522Y-56945465D01*
X140449500Y-57147648D01*
X138112332Y-57147648D01*
X138083477Y-56965466D01*
X138081166Y-56958355D01*
X138036215Y-56820010D01*
X138020220Y-56770781D01*
X138020218Y-56770778D01*
X138020218Y-56770776D01*
X137958693Y-56650028D01*
X137927287Y-56588390D01*
X137912652Y-56568247D01*
X137806971Y-56422786D01*
X137662213Y-56278028D01*
X137496614Y-56157715D01*
X137490006Y-56154348D01*
X137403917Y-56110483D01*
X137353123Y-56062511D01*
X137336328Y-55994690D01*
X137358865Y-55928555D01*
X137403917Y-55889516D01*
X137496610Y-55842287D01*
X137624674Y-55749244D01*
X137662213Y-55721971D01*
X137662215Y-55721968D01*
X137662219Y-55721966D01*
X137806966Y-55577219D01*
X137806968Y-55577215D01*
X137806971Y-55577213D01*
X137905205Y-55442003D01*
X137927287Y-55411610D01*
X138020220Y-55229219D01*
X138083477Y-55034534D01*
X138115500Y-54832352D01*
X138115500Y-54627648D01*
X138109162Y-54587635D01*
X138083477Y-54425465D01*
X138043421Y-54302187D01*
X138020220Y-54230781D01*
X138020218Y-54230778D01*
X138020218Y-54230776D01*
X137956594Y-54105909D01*
X137927287Y-54048390D01*
X137904387Y-54016870D01*
X137806971Y-53882786D01*
X137662213Y-53738028D01*
X137496614Y-53617715D01*
X137489884Y-53614286D01*
X137403917Y-53570483D01*
X137353123Y-53522511D01*
X137336328Y-53454690D01*
X137358865Y-53388555D01*
X137403917Y-53349516D01*
X137496610Y-53302287D01*
X137624674Y-53209244D01*
X137662213Y-53181971D01*
X137662215Y-53181968D01*
X137662219Y-53181966D01*
X137806966Y-53037219D01*
X137806968Y-53037215D01*
X137806971Y-53037213D01*
X137905205Y-52902003D01*
X137927287Y-52871610D01*
X138020220Y-52689219D01*
X138083477Y-52494534D01*
X138115500Y-52292352D01*
X138115500Y-52087648D01*
X138096575Y-51968163D01*
X138083477Y-51885465D01*
X138045054Y-51767213D01*
X138020220Y-51690781D01*
X138020218Y-51690778D01*
X138020218Y-51690776D01*
X137986503Y-51624607D01*
X137927287Y-51508390D01*
X137893871Y-51462396D01*
X137806971Y-51342786D01*
X137662213Y-51198028D01*
X137496613Y-51077715D01*
X137496612Y-51077714D01*
X137496610Y-51077713D01*
X137437675Y-51047684D01*
X137314223Y-50984781D01*
X137119534Y-50921522D01*
X136944995Y-50893878D01*
X136917352Y-50889500D01*
X136712648Y-50889500D01*
X136688329Y-50893351D01*
X136510465Y-50921522D01*
X136315776Y-50984781D01*
X136133386Y-51077715D01*
X135967786Y-51198028D01*
X135823028Y-51342786D01*
X135702715Y-51508386D01*
X135609781Y-51690776D01*
X135546522Y-51885465D01*
X135514500Y-52087648D01*
X135514500Y-52292351D01*
X135546522Y-52494534D01*
X135551173Y-52508848D01*
X135553165Y-52578690D01*
X135520921Y-52634842D01*
X130707181Y-57448583D01*
X130645858Y-57482068D01*
X130576166Y-57477084D01*
X130520233Y-57435212D01*
X130495816Y-57369748D01*
X130495500Y-57360902D01*
X130495500Y-57167648D01*
X130463477Y-56965465D01*
X130416215Y-56820010D01*
X130400220Y-56770781D01*
X130400218Y-56770778D01*
X130400218Y-56770776D01*
X130338693Y-56650028D01*
X130307287Y-56588390D01*
X130292652Y-56568247D01*
X130186971Y-56422786D01*
X130042213Y-56278028D01*
X129876614Y-56157715D01*
X129870006Y-56154348D01*
X129783917Y-56110483D01*
X129733123Y-56062511D01*
X129716328Y-55994690D01*
X129738865Y-55928555D01*
X129783917Y-55889516D01*
X129876610Y-55842287D01*
X130004674Y-55749244D01*
X130042213Y-55721971D01*
X130042215Y-55721968D01*
X130042219Y-55721966D01*
X130186966Y-55577219D01*
X130186968Y-55577215D01*
X130186971Y-55577213D01*
X130285205Y-55442003D01*
X130307287Y-55411610D01*
X130400220Y-55229219D01*
X130463477Y-55034534D01*
X130495500Y-54832352D01*
X130495500Y-54627648D01*
X130489162Y-54587635D01*
X130463477Y-54425465D01*
X130423421Y-54302187D01*
X130400220Y-54230781D01*
X130400218Y-54230778D01*
X130400218Y-54230776D01*
X130336594Y-54105909D01*
X130307287Y-54048390D01*
X130284387Y-54016870D01*
X130186971Y-53882786D01*
X130042217Y-53738032D01*
X130042212Y-53738028D01*
X129948051Y-53669616D01*
X129905385Y-53614286D01*
X129899406Y-53544673D01*
X129932012Y-53482878D01*
X129981933Y-53451592D01*
X130064117Y-53424359D01*
X130064124Y-53424356D01*
X130213345Y-53332315D01*
X130337315Y-53208345D01*
X130429356Y-53059124D01*
X130429358Y-53059119D01*
X130484505Y-52892697D01*
X130484506Y-52892690D01*
X130494999Y-52789986D01*
X130495000Y-52789973D01*
X130495000Y-52440000D01*
X129510686Y-52440000D01*
X129515080Y-52435606D01*
X129567741Y-52344394D01*
X129595000Y-52242661D01*
X129595000Y-52137339D01*
X129567741Y-52035606D01*
X129515080Y-51944394D01*
X129510686Y-51940000D01*
X130494999Y-51940000D01*
X130494999Y-51590028D01*
X130494998Y-51590013D01*
X130484505Y-51487302D01*
X130429358Y-51320880D01*
X130429356Y-51320875D01*
X130337315Y-51171654D01*
X130213345Y-51047684D01*
X130064124Y-50955643D01*
X130064119Y-50955641D01*
X129897697Y-50900494D01*
X129897690Y-50900493D01*
X129794986Y-50890000D01*
X129445000Y-50890000D01*
X129445000Y-51874314D01*
X129440606Y-51869920D01*
X129349394Y-51817259D01*
X129247661Y-51790000D01*
X129142339Y-51790000D01*
X129040606Y-51817259D01*
X128949394Y-51869920D01*
X128945000Y-51874314D01*
X128945000Y-50890000D01*
X128595028Y-50890000D01*
X128595012Y-50890001D01*
X128492302Y-50900494D01*
X128325880Y-50955641D01*
X128325875Y-50955643D01*
X128176654Y-51047684D01*
X128052684Y-51171654D01*
X127960643Y-51320875D01*
X127960641Y-51320880D01*
X127905494Y-51487302D01*
X127905493Y-51487309D01*
X127895000Y-51590013D01*
X127895000Y-51940000D01*
X128879314Y-51940000D01*
X128874920Y-51944394D01*
X128822259Y-52035606D01*
X128795000Y-52137339D01*
X128795000Y-52242661D01*
X128822259Y-52344394D01*
X128874920Y-52435606D01*
X128879314Y-52440000D01*
X127895001Y-52440000D01*
X127895001Y-52789986D01*
X127905494Y-52892697D01*
X127960641Y-53059119D01*
X127960643Y-53059124D01*
X128052684Y-53208345D01*
X128176654Y-53332315D01*
X128325875Y-53424356D01*
X128325882Y-53424359D01*
X128408067Y-53451592D01*
X128465512Y-53491364D01*
X128492336Y-53555880D01*
X128480021Y-53624656D01*
X128441949Y-53669616D01*
X128347787Y-53738028D01*
X128347782Y-53738032D01*
X128203028Y-53882786D01*
X128082715Y-54048386D01*
X127989781Y-54230776D01*
X127926522Y-54425465D01*
X127894500Y-54627648D01*
X125367314Y-54627648D01*
X125338247Y-54587641D01*
X125338243Y-54587636D01*
X125182363Y-54431756D01*
X125182358Y-54431752D01*
X125004025Y-54302187D01*
X125004024Y-54302186D01*
X125004022Y-54302185D01*
X124911855Y-54255223D01*
X124807606Y-54202104D01*
X124807603Y-54202103D01*
X124597952Y-54133985D01*
X124489086Y-54116742D01*
X124380222Y-54099500D01*
X124159778Y-54099500D01*
X124087201Y-54110995D01*
X123942047Y-54133985D01*
X123732396Y-54202103D01*
X123732393Y-54202104D01*
X123535974Y-54302187D01*
X123357641Y-54431752D01*
X123357636Y-54431756D01*
X123307463Y-54481929D01*
X123246140Y-54515413D01*
X123176448Y-54510428D01*
X123120515Y-54468557D01*
X123103601Y-54437580D01*
X123073797Y-54357671D01*
X123073793Y-54357664D01*
X122987547Y-54242455D01*
X122987544Y-54242452D01*
X122872335Y-54156206D01*
X122872328Y-54156202D01*
X122737482Y-54105908D01*
X122737483Y-54105908D01*
X122677883Y-54099501D01*
X122677881Y-54099500D01*
X122677873Y-54099500D01*
X122677864Y-54099500D01*
X120782129Y-54099500D01*
X120782121Y-54099501D01*
X120734715Y-54104597D01*
X120665956Y-54092190D01*
X120614820Y-54044578D01*
X120597542Y-53976878D01*
X120598293Y-53966992D01*
X120645309Y-53563076D01*
X120646209Y-53556763D01*
X120663456Y-53454690D01*
X120769541Y-52826815D01*
X120770757Y-52820595D01*
X120931521Y-52097885D01*
X120933042Y-52091792D01*
X121130797Y-51378312D01*
X121132634Y-51372293D01*
X121366838Y-50669997D01*
X121368999Y-50664031D01*
X121639044Y-49974727D01*
X121641521Y-49968855D01*
X121946694Y-49294358D01*
X121949466Y-49288634D01*
X122288943Y-48630769D01*
X122291985Y-48625231D01*
X122664901Y-47985674D01*
X122668223Y-47980301D01*
X123073583Y-47360767D01*
X123077169Y-47355583D01*
X123513875Y-46757754D01*
X123517751Y-46752726D01*
X123984640Y-46178184D01*
X123988734Y-46173402D01*
X124484603Y-45623635D01*
X124488963Y-45619045D01*
X125012445Y-45095563D01*
X125017035Y-45091203D01*
X125566802Y-44595334D01*
X125571584Y-44591240D01*
X126146135Y-44124342D01*
X126151182Y-44120454D01*
X126748965Y-43683782D01*
X126754167Y-43680183D01*
X127373701Y-43274823D01*
X127379074Y-43271501D01*
X128018629Y-42898586D01*
X128024168Y-42895544D01*
X128682055Y-42556056D01*
X128687758Y-42553295D01*
X128690322Y-42552135D01*
X132329500Y-42552135D01*
X132329500Y-44447870D01*
X132329501Y-44447876D01*
X132335908Y-44507483D01*
X132386202Y-44642328D01*
X132386206Y-44642335D01*
X132472452Y-44757544D01*
X132472455Y-44757547D01*
X132587664Y-44843793D01*
X132587671Y-44843797D01*
X132722517Y-44894091D01*
X132722516Y-44894091D01*
X132729444Y-44894835D01*
X132782127Y-44900500D01*
X134229902Y-44900499D01*
X134296941Y-44920184D01*
X134317583Y-44936818D01*
X141745139Y-52364374D01*
X141745149Y-52364385D01*
X141749479Y-52368715D01*
X141749480Y-52368716D01*
X141861284Y-52480520D01*
X141947113Y-52530073D01*
X141947114Y-52530074D01*
X141998209Y-52559574D01*
X141998210Y-52559574D01*
X141998215Y-52559577D01*
X142150942Y-52600500D01*
X142150943Y-52600500D01*
X147205501Y-52600500D01*
X147272540Y-52620185D01*
X147318295Y-52672989D01*
X147329501Y-52724500D01*
X147329501Y-52947876D01*
X147335908Y-53007483D01*
X147386202Y-53142328D01*
X147386206Y-53142335D01*
X147472452Y-53257544D01*
X147472455Y-53257547D01*
X147587664Y-53343793D01*
X147587671Y-53343797D01*
X147722517Y-53394091D01*
X147722516Y-53394091D01*
X147729444Y-53394835D01*
X147782127Y-53400500D01*
X149677872Y-53400499D01*
X149737483Y-53394091D01*
X149872331Y-53343796D01*
X149987546Y-53257546D01*
X150073796Y-53142331D01*
X150101429Y-53068243D01*
X150103601Y-53062420D01*
X150145471Y-53006486D01*
X150210936Y-52982068D01*
X150279209Y-52996919D01*
X150307464Y-53018071D01*
X150357636Y-53068243D01*
X150357641Y-53068247D01*
X150459603Y-53142326D01*
X150535978Y-53197815D01*
X150664375Y-53263237D01*
X150732393Y-53297895D01*
X150732396Y-53297896D01*
X150837221Y-53331955D01*
X150942049Y-53366015D01*
X151159778Y-53400500D01*
X151159779Y-53400500D01*
X151380221Y-53400500D01*
X151380222Y-53400500D01*
X151597951Y-53366015D01*
X151807606Y-53297895D01*
X152004022Y-53197815D01*
X152182365Y-53068242D01*
X152338242Y-52912365D01*
X152467815Y-52734022D01*
X152567895Y-52537606D01*
X152636015Y-52327951D01*
X152670500Y-52110222D01*
X152670500Y-51889778D01*
X152636015Y-51672049D01*
X152582840Y-51508390D01*
X152567896Y-51462396D01*
X152567895Y-51462393D01*
X152525335Y-51378867D01*
X152467815Y-51265978D01*
X152399285Y-51171654D01*
X152338247Y-51087641D01*
X152338243Y-51087636D01*
X152182363Y-50931756D01*
X152182358Y-50931752D01*
X152004025Y-50802187D01*
X152004024Y-50802186D01*
X152004022Y-50802185D01*
X151886791Y-50742452D01*
X151807606Y-50702104D01*
X151807603Y-50702103D01*
X151597952Y-50633985D01*
X151481021Y-50615465D01*
X151380222Y-50599500D01*
X151159778Y-50599500D01*
X151087201Y-50610995D01*
X150942047Y-50633985D01*
X150732396Y-50702103D01*
X150732393Y-50702104D01*
X150535974Y-50802187D01*
X150357641Y-50931752D01*
X150357636Y-50931756D01*
X150307463Y-50981929D01*
X150246140Y-51015413D01*
X150176448Y-51010428D01*
X150120515Y-50968557D01*
X150103601Y-50937580D01*
X150073797Y-50857671D01*
X150073793Y-50857664D01*
X149987547Y-50742455D01*
X149987544Y-50742452D01*
X149872335Y-50656206D01*
X149872328Y-50656202D01*
X149737482Y-50605908D01*
X149737483Y-50605908D01*
X149677883Y-50599501D01*
X149677881Y-50599500D01*
X149677873Y-50599500D01*
X149677864Y-50599500D01*
X147782129Y-50599500D01*
X147782123Y-50599501D01*
X147722516Y-50605908D01*
X147587671Y-50656202D01*
X147587664Y-50656206D01*
X147472455Y-50742452D01*
X147472452Y-50742455D01*
X147386206Y-50857664D01*
X147386202Y-50857671D01*
X147335908Y-50992517D01*
X147329501Y-51052116D01*
X147329500Y-51052135D01*
X147329500Y-51275500D01*
X147309815Y-51342539D01*
X147257011Y-51388294D01*
X147205500Y-51399500D01*
X142530097Y-51399500D01*
X142463058Y-51379815D01*
X142442416Y-51363181D01*
X141493670Y-50414435D01*
X155041800Y-50414435D01*
X155041800Y-51805570D01*
X155041801Y-51805576D01*
X155048208Y-51865183D01*
X155098502Y-52000028D01*
X155098506Y-52000035D01*
X155184752Y-52115244D01*
X155184755Y-52115247D01*
X155299964Y-52201493D01*
X155299971Y-52201497D01*
X155434817Y-52251791D01*
X155434816Y-52251791D01*
X155441744Y-52252535D01*
X155494427Y-52258200D01*
X156062103Y-52258199D01*
X156129140Y-52277883D01*
X156174895Y-52330687D01*
X156184839Y-52399846D01*
X156155814Y-52463402D01*
X156097036Y-52501176D01*
X156081499Y-52504672D01*
X155921132Y-52530072D01*
X155749241Y-52585923D01*
X155588208Y-52667974D01*
X155442003Y-52774196D01*
X155314196Y-52902003D01*
X155207974Y-53048208D01*
X155125923Y-53209241D01*
X155070072Y-53381132D01*
X155041800Y-53559635D01*
X155041800Y-53740364D01*
X155070053Y-53918750D01*
X155070073Y-53918871D01*
X155125922Y-54090756D01*
X155207840Y-54251529D01*
X155207974Y-54251791D01*
X155314196Y-54397996D01*
X155442003Y-54525803D01*
X155552262Y-54605909D01*
X155588212Y-54632028D01*
X155749244Y-54714078D01*
X155921129Y-54769927D01*
X156099635Y-54798200D01*
X156280365Y-54798200D01*
X156458871Y-54769927D01*
X156630756Y-54714078D01*
X156791788Y-54632028D01*
X156902743Y-54551415D01*
X156937996Y-54525803D01*
X156937998Y-54525800D01*
X156938002Y-54525798D01*
X157065798Y-54398002D01*
X157065800Y-54397998D01*
X157065803Y-54397996D01*
X157135411Y-54302187D01*
X157172028Y-54251788D01*
X157254078Y-54090756D01*
X157309927Y-53918871D01*
X157338200Y-53740365D01*
X157338200Y-53559668D01*
X162662300Y-53559668D01*
X162662300Y-53740331D01*
X162690559Y-53918750D01*
X162746386Y-54090566D01*
X162828401Y-54251529D01*
X162839558Y-54266886D01*
X162839559Y-54266886D01*
X163416300Y-53690145D01*
X163416300Y-53701832D01*
X163443130Y-53801962D01*
X163494962Y-53891737D01*
X163568263Y-53965038D01*
X163658038Y-54016870D01*
X163758168Y-54043700D01*
X163769853Y-54043700D01*
X163193112Y-54620438D01*
X163193112Y-54620439D01*
X163208477Y-54631602D01*
X163369433Y-54713613D01*
X163541249Y-54769440D01*
X163707340Y-54795747D01*
X163912659Y-54795747D01*
X164078750Y-54769440D01*
X164250566Y-54713613D01*
X164411528Y-54631599D01*
X164411532Y-54631597D01*
X164426886Y-54620440D01*
X164426887Y-54620439D01*
X163850148Y-54043700D01*
X163861832Y-54043700D01*
X163961962Y-54016870D01*
X164051737Y-53965038D01*
X164125038Y-53891737D01*
X164176870Y-53801962D01*
X164203700Y-53701832D01*
X164203700Y-53690147D01*
X164780440Y-54266887D01*
X164780440Y-54266886D01*
X164791597Y-54251532D01*
X164791599Y-54251528D01*
X164873613Y-54090566D01*
X164929440Y-53918750D01*
X164957700Y-53740331D01*
X164957700Y-53559668D01*
X164929440Y-53381249D01*
X164873613Y-53209433D01*
X164791602Y-53048477D01*
X164780439Y-53033112D01*
X164780438Y-53033112D01*
X164203700Y-53609851D01*
X164203700Y-53598168D01*
X164176870Y-53498038D01*
X164125038Y-53408263D01*
X164051737Y-53334962D01*
X163961962Y-53283130D01*
X163861832Y-53256300D01*
X163850147Y-53256300D01*
X164426886Y-52679559D01*
X164426886Y-52679558D01*
X164411529Y-52668401D01*
X164250566Y-52586386D01*
X164078750Y-52530559D01*
X164078752Y-52530559D01*
X163912658Y-52504252D01*
X163707341Y-52504252D01*
X163541248Y-52530559D01*
X163369433Y-52586386D01*
X163208476Y-52668397D01*
X163208472Y-52668400D01*
X163193112Y-52679558D01*
X163193112Y-52679559D01*
X163769854Y-53256300D01*
X163758168Y-53256300D01*
X163658038Y-53283130D01*
X163568263Y-53334962D01*
X163494962Y-53408263D01*
X163443130Y-53498038D01*
X163416300Y-53598168D01*
X163416300Y-53609853D01*
X162839559Y-53033112D01*
X162839558Y-53033112D01*
X162828400Y-53048472D01*
X162828397Y-53048476D01*
X162746386Y-53209433D01*
X162690559Y-53381249D01*
X162662300Y-53559668D01*
X157338200Y-53559668D01*
X157338200Y-53559635D01*
X157309927Y-53381129D01*
X157254078Y-53209244D01*
X157172028Y-53048212D01*
X157161057Y-53033112D01*
X157065803Y-52902003D01*
X156937996Y-52774196D01*
X156791791Y-52667974D01*
X156791790Y-52667973D01*
X156791788Y-52667972D01*
X156630756Y-52585922D01*
X156458871Y-52530073D01*
X156458869Y-52530072D01*
X156458867Y-52530072D01*
X156298499Y-52504672D01*
X156235364Y-52474743D01*
X156198433Y-52415431D01*
X156199431Y-52345568D01*
X156238041Y-52287336D01*
X156302005Y-52259222D01*
X156317890Y-52258199D01*
X156885572Y-52258199D01*
X156945183Y-52251791D01*
X157080031Y-52201496D01*
X157195246Y-52115246D01*
X157281496Y-52000031D01*
X157331791Y-51865183D01*
X157338200Y-51805573D01*
X157338199Y-51019635D01*
X162661800Y-51019635D01*
X162661800Y-51200364D01*
X162689992Y-51378363D01*
X162690073Y-51378871D01*
X162745922Y-51550756D01*
X162817268Y-51690781D01*
X162827974Y-51711791D01*
X162934196Y-51857996D01*
X163062003Y-51985803D01*
X163198817Y-52085202D01*
X163208212Y-52092028D01*
X163369244Y-52174078D01*
X163541129Y-52229927D01*
X163719635Y-52258200D01*
X163900365Y-52258200D01*
X164078871Y-52229927D01*
X164250756Y-52174078D01*
X164411788Y-52092028D01*
X164494019Y-52032284D01*
X164557996Y-51985803D01*
X164557998Y-51985800D01*
X164558002Y-51985798D01*
X164685798Y-51858002D01*
X164685800Y-51857998D01*
X164685803Y-51857996D01*
X164751755Y-51767219D01*
X164792028Y-51711788D01*
X164874078Y-51550756D01*
X164929927Y-51378871D01*
X164958200Y-51200365D01*
X164958200Y-51019635D01*
X164929927Y-50841129D01*
X164874078Y-50669244D01*
X164792028Y-50508212D01*
X164775540Y-50485518D01*
X164685803Y-50362003D01*
X164557996Y-50234196D01*
X164411791Y-50127974D01*
X164411790Y-50127973D01*
X164411788Y-50127972D01*
X164250756Y-50045922D01*
X164078871Y-49990073D01*
X164078869Y-49990072D01*
X164078867Y-49990072D01*
X163940823Y-49968208D01*
X163900365Y-49961800D01*
X163719635Y-49961800D01*
X163679177Y-49968208D01*
X163541132Y-49990072D01*
X163369241Y-50045923D01*
X163208208Y-50127974D01*
X163062003Y-50234196D01*
X162934196Y-50362003D01*
X162827974Y-50508208D01*
X162745923Y-50669241D01*
X162690072Y-50841132D01*
X162661800Y-51019635D01*
X157338199Y-51019635D01*
X157338199Y-50414428D01*
X157332999Y-50366057D01*
X157331791Y-50354816D01*
X157281497Y-50219971D01*
X157281493Y-50219964D01*
X157195247Y-50104755D01*
X157195244Y-50104752D01*
X157080035Y-50018506D01*
X157080028Y-50018502D01*
X156945182Y-49968208D01*
X156945183Y-49968208D01*
X156885583Y-49961801D01*
X156885581Y-49961800D01*
X156885573Y-49961800D01*
X156885564Y-49961800D01*
X155494429Y-49961800D01*
X155494423Y-49961801D01*
X155434816Y-49968208D01*
X155299971Y-50018502D01*
X155299964Y-50018506D01*
X155184755Y-50104752D01*
X155184752Y-50104755D01*
X155098506Y-50219964D01*
X155098502Y-50219971D01*
X155048208Y-50354817D01*
X155041801Y-50414416D01*
X155041801Y-50414423D01*
X155041800Y-50414435D01*
X141493670Y-50414435D01*
X136191416Y-45112181D01*
X136157931Y-45050858D01*
X136162915Y-44981166D01*
X136204787Y-44925233D01*
X136270251Y-44900816D01*
X136279097Y-44900500D01*
X136380221Y-44900500D01*
X136380222Y-44900500D01*
X136597951Y-44866015D01*
X136807606Y-44797895D01*
X137004022Y-44697815D01*
X137182365Y-44568242D01*
X137338242Y-44412365D01*
X137467815Y-44234022D01*
X137567895Y-44037606D01*
X137636015Y-43827951D01*
X137670500Y-43610222D01*
X137670500Y-43389778D01*
X137636015Y-43172049D01*
X137567895Y-42962394D01*
X137567895Y-42962393D01*
X137533237Y-42894375D01*
X137467815Y-42765978D01*
X137451260Y-42743192D01*
X137338247Y-42587641D01*
X137338243Y-42587636D01*
X137182363Y-42431756D01*
X137182358Y-42431752D01*
X137004025Y-42302187D01*
X137004024Y-42302186D01*
X137004022Y-42302185D01*
X136895338Y-42246807D01*
X136807606Y-42202104D01*
X136807603Y-42202103D01*
X136597952Y-42133985D01*
X136489086Y-42116742D01*
X136380222Y-42099500D01*
X136159778Y-42099500D01*
X136087201Y-42110995D01*
X135942047Y-42133985D01*
X135732396Y-42202103D01*
X135732393Y-42202104D01*
X135535974Y-42302187D01*
X135357641Y-42431752D01*
X135357636Y-42431756D01*
X135307463Y-42481929D01*
X135246140Y-42515413D01*
X135176448Y-42510428D01*
X135120515Y-42468557D01*
X135103601Y-42437580D01*
X135073797Y-42357671D01*
X135073793Y-42357664D01*
X134987547Y-42242455D01*
X134987544Y-42242452D01*
X134872335Y-42156206D01*
X134872328Y-42156202D01*
X134737482Y-42105908D01*
X134737483Y-42105908D01*
X134677883Y-42099501D01*
X134677881Y-42099500D01*
X134677873Y-42099500D01*
X134677864Y-42099500D01*
X132782129Y-42099500D01*
X132782123Y-42099501D01*
X132722516Y-42105908D01*
X132587671Y-42156202D01*
X132587664Y-42156206D01*
X132472455Y-42242452D01*
X132472452Y-42242455D01*
X132386206Y-42357664D01*
X132386202Y-42357671D01*
X132335908Y-42492517D01*
X132329501Y-42552116D01*
X132329500Y-42552135D01*
X128690322Y-42552135D01*
X129362265Y-42248116D01*
X129368126Y-42245644D01*
X130057402Y-41975611D01*
X130063398Y-41973439D01*
X130765667Y-41739245D01*
X130771747Y-41737389D01*
X131485182Y-41539645D01*
X131491339Y-41538108D01*
X132213957Y-41377365D01*
X132220214Y-41376141D01*
X132950169Y-41252808D01*
X132956475Y-41251910D01*
X133691820Y-41166315D01*
X133698111Y-41165747D01*
X134436924Y-41118118D01*
X134443226Y-41117874D01*
X135183491Y-41108343D01*
X135189862Y-41108424D01*
G37*
%TD.AperFunction*%
%TD*%
M02*
