%TF.GenerationSoftware,KiCad,Pcbnew,9.0.6*%
%TF.CreationDate,2025-12-25T21:01:25-08:00*%
%TF.ProjectId,LED Chaser,4c454420-4368-4617-9365-722e6b696361,rev?*%
%TF.SameCoordinates,Original*%
%TF.FileFunction,Soldermask,Top*%
%TF.FilePolarity,Negative*%
%FSLAX46Y46*%
G04 Gerber Fmt 4.6, Leading zero omitted, Abs format (unit mm)*
G04 Created by KiCad (PCBNEW 9.0.6) date 2025-12-25 21:01:25*
%MOMM*%
%LPD*%
G01*
G04 APERTURE LIST*
G04 Aperture macros list*
%AMRoundRect*
0 Rectangle with rounded corners*
0 $1 Rounding radius*
0 $2 $3 $4 $5 $6 $7 $8 $9 X,Y pos of 4 corners*
0 Add a 4 corners polygon primitive as box body*
4,1,4,$2,$3,$4,$5,$6,$7,$8,$9,$2,$3,0*
0 Add four circle primitives for the rounded corners*
1,1,$1+$1,$2,$3*
1,1,$1+$1,$4,$5*
1,1,$1+$1,$6,$7*
1,1,$1+$1,$8,$9*
0 Add four rect primitives between the rounded corners*
20,1,$1+$1,$2,$3,$4,$5,0*
20,1,$1+$1,$4,$5,$6,$7,0*
20,1,$1+$1,$6,$7,$8,$9,0*
20,1,$1+$1,$8,$9,$2,$3,0*%
G04 Aperture macros list end*
%ADD10R,1.800000X1.800000*%
%ADD11C,1.800000*%
%ADD12RoundRect,0.250000X0.550000X0.550000X-0.550000X0.550000X-0.550000X-0.550000X0.550000X-0.550000X0*%
%ADD13C,1.600000*%
%ADD14RoundRect,0.250000X-0.550000X-0.550000X0.550000X-0.550000X0.550000X0.550000X-0.550000X0.550000X0*%
%ADD15R,1.295400X1.295400*%
%ADD16C,1.295400*%
%ADD17C,1.440000*%
%ADD18R,1.700000X1.700000*%
%ADD19C,1.700000*%
G04 APERTURE END LIST*
D10*
%TO.C,D10*%
X175730000Y-56000000D03*
D11*
X178270000Y-56000000D03*
%TD*%
D10*
%TO.C,D3*%
X121730000Y-55500000D03*
D11*
X124270000Y-55500000D03*
%TD*%
D10*
%TO.C,D4*%
X148730000Y-87750000D03*
D11*
X151270000Y-87750000D03*
%TD*%
D12*
%TO.C,C2*%
X143750000Y-57250000D03*
D13*
X141750000Y-57250000D03*
%TD*%
%TO.C,R2*%
X169500000Y-50920000D03*
X169500000Y-61080000D03*
%TD*%
%TO.C,R1*%
X155080000Y-73080000D03*
X144920000Y-73080000D03*
%TD*%
D10*
%TO.C,D9*%
X158230000Y-78000000D03*
D11*
X160770000Y-78000000D03*
%TD*%
D10*
%TO.C,D8*%
X139230000Y-78000000D03*
D11*
X141770000Y-78000000D03*
%TD*%
D10*
%TO.C,D7*%
X129230000Y-68000000D03*
D11*
X131770000Y-68000000D03*
%TD*%
D10*
%TO.C,D2*%
X148730000Y-52000000D03*
D11*
X151270000Y-52000000D03*
%TD*%
D14*
%TO.C,U1*%
X129195000Y-52190000D03*
D13*
X129195000Y-54730000D03*
X129195000Y-57270000D03*
X129195000Y-59810000D03*
X136815000Y-59810000D03*
X136815000Y-57270000D03*
X136815000Y-54730000D03*
X136815000Y-52190000D03*
%TD*%
D15*
%TO.C,U2*%
X156190000Y-51110000D03*
D16*
X156190000Y-53650000D03*
X156190000Y-56190000D03*
X156190000Y-58730000D03*
X156190000Y-61270000D03*
X156190000Y-63810000D03*
X156190000Y-66350000D03*
X156190000Y-68890000D03*
X163810000Y-68890000D03*
X163810000Y-66350000D03*
X163810000Y-63810000D03*
X163810000Y-61270000D03*
X163810000Y-58730000D03*
X163810000Y-56190000D03*
X163810000Y-53650000D03*
X163810000Y-51110000D03*
%TD*%
D17*
%TO.C,RV1*%
X150000000Y-59710000D03*
X150000000Y-62250000D03*
X150000000Y-64790000D03*
%TD*%
D10*
%TO.C,D5*%
X168230000Y-68000000D03*
D11*
X170770000Y-68000000D03*
%TD*%
D12*
%TO.C,C1*%
X143750000Y-66000000D03*
D13*
X141750000Y-66000000D03*
%TD*%
D10*
%TO.C,D1*%
X133730000Y-43500000D03*
D11*
X136270000Y-43500000D03*
%TD*%
D10*
%TO.C,D6*%
X163730000Y-43500000D03*
D11*
X166270000Y-43500000D03*
%TD*%
D18*
%TO.C,J1*%
X152555000Y-80225000D03*
D19*
X150015000Y-80225000D03*
X147475000Y-80225000D03*
%TD*%
M02*
